<?xml version="1.0" encoding="UTF-8"?>
<svg id="Layer_2" xmlns="http://www.w3.org/2000/svg" viewBox="0 0 2412.31 2282.2">
  <g id="Layer_1-2" data-name="Layer_1">
    <g>
      <path d="M108.53,2168.33c30.44-11.91,60.02-25.89,89.27-40.42,320.49-162.99,596.59-406.11,819.37-686.82,101.23-127.9,190.75-265.24,269.78-407.91,7.27-12.99,17.13-30,24.61-42.49,74.95-126.77,161.37-247.19,260.81-355.93,159.58-175.02,355.28-321.06,578.03-404.63,68.89-25.69,140.26-45.74,213.11-56.18,16.19-2.26,32.45-4.14,48.78-4.81-65.19,4.63-129.21,20.31-191.48,39.61-62.21,19.65-122.87,44.58-181.2,73.75-109.53,54.56-211.32,124.14-304.2,203.66-105.06,90.37-198.99,193.73-281.5,304.96-58.36,78.36-111.48,161.18-159.53,246.27-83.08,150.25-178.09,294.47-286.22,427.88-159.31,197.2-346.07,372.87-555.77,515.59-108.45,72.81-222.06,139.59-343.87,187.46h0Z"/>
      <path d="M158.43,2171.11c29.71-11.84,58.57-25.71,87.11-40.09,440.44-228.78,795.03-604.04,1039.74-1032.54,87.87-159.42,191.02-311.47,315.74-444.47,181.26-193.68,409.92-350.77,668.95-417.06,46.53-11.57,93.93-20.8,141.88-23.25-7.99.38-15.95,1.16-23.89,2.05-59.52,7.06-118.01,21.51-174.98,39.92-26.28,8.51-53.14,18.36-78.76,28.71-327.62,133.08-585.76,396.93-769.08,694.16-33.4,53.06-64.62,111.76-96.56,165.71-195.34,330.54-457.61,623.74-774.64,841.61-105.8,71.73-216.62,137.65-335.51,185.24h0Z"/>
      <path d="M208.33,2173.88c57.8-23.92,113.03-53.65,167.15-84.9,412.19-241.99,739.46-611.57,967.17-1029.03,51.35-87.82,107.94-173.07,171.19-252.8,183.25-232.87,426.83-427.96,713.44-514.1,59.98-17.56,121.57-31.49,184.13-34.8-7.81.35-15.6,1.1-23.37,1.96-62.1,7.22-123.09,22.66-182.39,42.25-230.1,77.04-432.23,224.1-594.88,402.37-47.29,51.62-91.9,106.62-133.12,163.2-41.36,56.56-80.15,115.67-115.84,175.96-5.96,9.91-17.86,30.39-23.51,40.51-75.95,136.91-161.9,268.48-259.03,391.36-87.41,110.51-183.35,214.52-287.28,309.68-127.02,116.17-265.71,220.16-415.33,305.46-54.5,30.7-110.14,59.75-168.32,82.88h0Z"/>
      <path d="M258.23,2176.66c56.33-23.79,110.14-53.2,162.86-84.06,394.45-235.13,710.56-588.6,931.93-988.64,49.18-86.41,104.12-170.08,164.89-248.79,144.87-187.52,326.89-350.03,541.73-452.69,103.55-49.04,214.12-86.05,328.42-98.12,7.61-.71,15.24-1.32,22.88-1.55-30.53,1.67-60.79,6.77-90.71,12.85-315.69,68-585.33,275.99-781.98,526.28-28.1,35.52-55.6,73.38-81.23,110.7-25.58,37.7-50.56,76.6-73.76,115.84-5.88,9.74-17.47,29.64-23.02,39.58-74.32,133.74-158.39,262.5-253.14,382.66-113.72,144.21-242.18,277.14-383.98,393.94-142.07,115.64-295.73,220.29-464.89,292h0Z"/>
      <path d="M308.14,2179.44c54.86-23.66,107.25-52.74,158.57-83.22,332.42-201.02,608.68-488.12,816.8-814.77,19.52-30.76,39.78-64.13,58.14-95.59,12.73-21.91,31.88-55.78,44.55-77.79,32.09-54.58,66.71-108.75,103.44-160.3,60.66-85.25,128.66-165.95,203.31-239.27,182.9-178.43,417.08-320.45,672.91-357.17,14.82-1.91,29.7-3.49,44.64-3.96-29.83,1.56-59.41,6.47-88.66,12.34-286.24,60.67-535.4,240.18-722.79,460.31-43.42,50.73-84.24,104.88-122.11,159.88-29.22,42.73-57.47,87.65-83.66,132.31-76.16,137.22-161.07,270.13-258.35,393.39-87.78,111.63-184.58,216.6-289.56,312.29-138.21,125.61-290.18,237.25-456.06,323.55-26.61,13.59-53.5,26.72-81.18,38h0Z"/>
      <path d="M358.04,2182.22c106.34-48.03,205.21-111.42,299.65-179.6,253.11-184.87,468.1-419.96,638.1-682.83,39.48-60.41,76.41-124.89,112.19-187.64,29.5-49.96,61.35-100.13,94.92-147.44,60.93-86.55,129.67-168.22,205.35-242.22,148.99-144.87,329.19-261.47,529.76-319.55,56.1-15.88,113.66-28.35,172.03-31.02-7.29.28-14.56.93-21.81,1.68-250.93,30.9-488.02,172.32-667.25,346.29-75.82,73.23-144.17,154.63-205.32,240.45-31.38,44.16-61.77,90.6-89.48,137.16-16.17,26.76-36.29,62.82-51.9,90-22.95,39.26-46.87,78.61-71.69,116.7-170.59,263.45-387.22,498.48-642.56,681.68-95.19,67.39-194.81,129.85-302,176.34h0Z"/>
      <path d="M407.94,2184.99c51.92-23.4,101.44-51.82,149.96-81.54,96.8-59.89,188.38-128.07,274.74-202.16,183.51-157.43,343.05-342.24,475.93-544.07,29.1-44.43,57.34-90.18,83.94-136.14,22.18-38.73,46.75-82.13,70.67-119.65,30.2-48.01,63-95.68,97.45-140.71,180.13-237.11,428.96-434.65,722.33-505.27,41.58-9.68,83.89-17.31,126.62-18.97-7.12.26-14.21.87-21.29,1.58-106.09,11.96-208.86,46.29-305.05,91.84-212.23,101.14-390.33,264.44-529.26,452.55-33.57,45.21-65.84,93.36-95.34,141.32-19.29,31.21-40.81,69.43-59.11,101.39-20.38,35.34-42.05,70.66-63.9,105.08-198.76,310-460.97,583.27-776.58,775.14-48.9,29.2-98.83,56.97-151.13,79.62h0Z"/>
      <path d="M457.84,2187.77c100.44-47.45,193.67-109.12,282.78-175.11,70.58-52.6,138.71-110.5,203.03-170.63,15.31-14.84,33.64-31.97,48.54-47.08,7.26-7.43,30.51-30.48,36.53-37.03,10.16-10.75,25.54-26.95,35.78-37.75,8.24-9.12,33.17-36.63,41.87-46.29,9.83-11.45,31.42-36.49,40.72-47.3,11.76-14.49,34.37-41.64,45.99-56.45,11.75-15.2,26.55-34.11,38.24-49.33,10.04-13.63,30.14-40.91,40.11-54.43,12.03-17.41,32.6-46.37,44.47-64.1,10.48-15.94,23.81-36.21,34.28-52.15,22.84-35.96,48.84-78.66,70.01-115.67,13.5-22.94,28.25-49.32,42.11-72.01,8.1-13.74,19-30.81,27.47-44.37,46.81-73,98.72-143.75,155.77-209.11,167.89-193.6,388.29-350.2,640.05-409.8,40.59-9.31,81.89-16.61,123.57-18.12-41.61,2.1-82.74,10.06-123.17,19.8-226.19,56.35-427.05,190.92-586.18,358.9-92.83,98.06-172.88,208.38-241.4,324.62-23.75,40.75-48.84,85.83-73.91,125.8-7.36,11.8-25.67,41.75-33.35,52.96-10.6,15.95-23.79,36.41-34.54,52.2-10.7,15.16-31.09,44.87-41.93,59.78-11.5,15.37-31.79,43.53-43.58,58.59-11.72,14.87-26.75,34.49-38.62,49.25-14.46,17.43-38.42,47.12-53.47,64.07-19.13,22.6-49.42,55.99-69.48,77.8-9.83,10.26-26.11,27.29-36.07,37.67-10.04,10.55-34.08,34.03-44.23,44.28-12.58,12.18-28.91,27.49-41.54,39.57-13.23,12-29.16,26.65-42.48,38.54-135.8,118.45-283.31,226.97-447.36,302.89h0Z"/>
      <path d="M507.74,2190.55c145.8-71.65,277.59-169.39,400.14-275.35,52.79-46.34,105.29-96.49,153.84-147.2,9.88-10.51,24.81-26.35,34.76-36.92,7.88-8.73,32.3-35.95,40.68-45.25,9.6-11.23,30.52-35.61,39.58-46.21,11.42-14.15,33.43-40.66,44.71-55.13,11.43-14.84,25.85-33.28,37.19-48.15,3.22-4.39,26.15-35.56,30.03-40.85,3.58-4.92,8.57-11.52,11.91-16.42,10.34-15.05,30.23-43.02,40.4-58.36,10.21-15.54,23.2-35.31,33.42-50.84,3.38-5.05,23.09-37.12,26.79-43.04,28.14-44.9,55.14-94.56,82.62-139.86,27.79-46.07,58.37-92.1,90.12-135.53,64-87.41,136.72-169.37,217.64-241.49,151.59-134.67,335.68-238.34,536.42-275.26,26.68-4.62,53.6-8.36,80.69-9.11-27.05,1.15-53.9,5.29-80.47,10.3-192.78,38.08-369.92,137.06-517.13,265.49-86.4,75.42-163.48,161.95-230.95,254.61-31.57,43.29-61.97,89.16-89.59,135.07-27.44,45.33-54.35,95.09-82.58,139.95-3.55,5.65-23.44,37.95-26.92,43.14-10.25,15.56-23.32,35.39-33.57,50.95-10.24,15.39-30.15,43.34-40.58,58.48-3.72,5.42-8.19,11.3-11.96,16.45-7.33,9.8-28.7,39.32-36.38,48.98-8.77,11.25-22.45,28.82-31.25,40.11-7.12,9.25-25.2,30.86-32.12,39.42-23.74,29.04-54.7,64.34-80.06,92.07-14.47,16.3-33.68,36.06-48.7,51.9-48.93,50.48-101.89,100.65-155.11,146.62-123.53,105.19-256.44,201.94-403.56,271.41h0Z"/>
      <path d="M557.64,2193.33c94.51-46.87,182.11-106.75,265.92-170.53,83.41-64.09,162.76-134.5,236.73-209.28,50.12-50.44,100.38-106.37,146.09-160.83,11.08-13.81,32.49-39.69,43.43-53.8,13.31-17.45,29.09-37.24,42-54.93,7.11-9.69,25.55-34.82,32.13-43.81,1.6-2.31,12.21-17.56,14.09-20.28,4.89-7.09,23.97-34.26,28.04-40.66,3.22-4.88,12.87-19.61,16.27-24.77,12.47-18.46,30.56-47.42,42.38-66.7,27.42-43.75,53.77-92.1,80.6-136.18,58.12-95.97,125.28-187.11,201.5-269.53,165.31-178.44,380.9-319.42,622.77-363.26,26.01-4.41,52.25-7.97,78.64-8.62-26.35,1.05-52.52,5-78.43,9.8-129.46,24.89-252.34,78.85-362.88,150.04-110.6,71.38-208.93,161.06-294.17,261.16-48.75,57.5-93.89,119.17-134.71,182.53-37.28,57.54-70.3,120.02-106.62,178.19-6.95,11.13-24.41,39.63-31.68,50.29-10.03,15.11-22.64,34.6-32.77,49.59-12.76,18.12-32.43,47.13-45.61,64.82-7.03,9.42-28,38.42-35.38,47.76-8.51,10.95-21.84,28.12-30.39,39.12-7.23,9.41-24.26,29.84-31.21,38.46-40.96,50.07-87.04,101.21-131.87,147.79-45.46,46.6-94.51,93.58-143.63,136.35-119.8,103.12-248.58,198.24-391.26,267.27h0Z"/>
      <path d="M607.54,2196.1c159.4-82.8,301.79-196.25,432-319.22,92.36-88.3,178.64-184.9,256.2-286.46,34.76-45.16,69.09-93.21,100.69-140.76,9.83-15.11,22.03-33.16,31.53-48.32,6.89-11.13,23.8-38.35,30.42-49.03,18.91-31.51,39.85-68.07,58.44-99.66,56.01-93.86,120.15-183.3,193.74-264.21,170.54-188.56,402.91-339.04,658.78-371.01,12.77-1.4,25.58-2.53,38.43-2.72-12.83.39-25.62,1.71-38.35,3.31-261.74,36.98-494.74,193.5-666.42,389.48-54.87,62.55-104.58,129.85-149.28,200.01-30.2,47.2-57.37,96.4-86.1,144.76-8.09,12.99-24.9,40.03-33.11,53.23-13.36,20.95-28.63,43.78-42.35,64.49-24.38,35.4-52.73,75.51-78.73,109.68-58.04,76.29-121.41,150.74-187.75,219.92-34.73,35.91-73.62,73.9-110.45,107.68-123.92,111.38-258.11,214.32-407.68,288.83h0Z"/>
      <path d="M657.44,2198.88c88.54-46.29,170.56-104.28,248.99-165.92,68.03-53.85,134.14-112.84,195.56-174.21,79.09-78.75,154.01-164.5,221.57-253.33,45.31-59.03,88.4-121.32,128.46-184.06,8.15-13.16,24.17-38.89,32.08-51.66,4.61-7.82,21.1-36.01,26.05-44.38,18.7-32,37.99-65.35,58.12-96.43,77.56-121.12,170.94-233.06,280.9-326.09,138.18-116.84,304.3-204.93,483.62-235.91,24.66-3.99,49.54-7.17,74.54-7.63-12.49.34-24.93,1.59-37.32,3.1-198.45,26.85-381.77,126.37-530.96,257.38-93.46,82.46-174.52,178.58-243.92,281.95-38.55,56.78-71.57,117-106.87,175.99-11.36,18.03-28.17,45.81-39.93,63.56-23.28,35.7-49.04,73.95-74.09,108.45-65.51,90.95-138.21,178.5-215.42,259.79-33.64,35.06-71.3,72.22-106.95,105.27-119.96,109.02-249.7,210.11-394.42,284.12h0Z"/>
      <path d="M707.34,2201.66c127.94-69.7,243.21-160.84,350.86-258.49,31.22-28.6,65.17-61.77,94.68-91.82,53.13-54.97,105.9-113.95,153.67-173.6,60.75-75.2,117.59-154.85,169.52-236.35,8.89-14.47,24.97-39.82,33.49-54.13,18.93-31.85,40.95-70.42,60.28-101.94,54-88.17,116.35-171.53,187.3-246.82,153.69-163.08,354.15-289.8,577.25-327.55,23.99-3.78,48.18-6.78,72.48-7.14-12.14.29-24.24,1.47-36.29,2.89-285.04,38.46-531.72,222.57-702.12,447.56-30.99,40.73-60.44,83.81-87.45,127.26-21.98,35.71-45.73,77.51-67.18,113.64-9.92,15.89-26.14,42.12-36.21,58.03-24.38,37.34-50.78,76.96-76.96,113.09-81.41,113.18-173.04,220.53-272.67,318.11-56.03,54.87-116.26,108.06-177.8,156.59-76.61,59.65-156.42,116.08-242.83,160.67h0Z"/>
      <path d="M757.24,2204.43c82.52-45.7,158.88-101.88,231.99-161.28,100.14-81.96,193.4-173.14,278.48-270.64,53.95-61.39,105.8-127.51,153.38-193.91,24.75-34.3,51.23-74.19,74.33-109.67,12.65-20.34,29.7-47.13,41.72-67.67,17.99-30.19,35.71-61.3,54.2-91.33,30.94-50.3,64.76-99.04,101.37-145.39,60.36-76.55,128.91-147.01,205.28-207.69,136.16-107.63,299.38-186.98,473.11-206.38,11.74-1.15,23.52-2.05,35.32-2.11-11.79.25-23.55,1.34-35.26,2.68-163.95,20.71-318.09,94.5-448.66,194.08-135.62,103.92-246.25,237.76-333.98,383.8-18.04,30.33-35.69,61.16-53.92,91.45-8.55,13.63-24.2,38.92-32.85,52.59-8.97,13.64-25.02,38-34.11,51.79-80.96,119.36-172.61,233.14-273.21,336.55-9.4,9.75-21.78,21.91-31.19,31.44-11.68,11.73-26.97,26.11-38.14,37-112.05,104.29-232.85,201.65-367.84,274.67h0Z"/>
      <path d="M807.14,2207.21c79.49-45.41,153.02-100.67,223.45-158.95,92.15-76.68,178.12-161.49,257.38-251.41,46.46-52.96,92.53-110.16,134.41-166.85,20.8-28.28,44.49-62,64.27-91.04,10.89-16.76,27.04-40.76,37.48-57.43,8.47-13.63,23.52-37.51,31.6-51.01,14.55-24.36,42.28-72.27,57.08-95.94,16.22-26.34,34.42-53.62,52.25-78.91,120.4-170.59,281.34-316.94,474.89-399.04,79.13-33.14,162.99-57.21,248.83-63.12,5.72-.33,11.44-.58,17.16-.56-22.88.55-45.64,3.56-68.2,7.29-249.43,43.52-466.52,201.45-620.61,397.91-35.32,44.76-68.14,91.76-98.03,140.33-14.64,23.45-42.51,71.77-56.95,95.93-8.06,13.44-23.37,37.58-31.76,51.12-48.98,76.72-102.95,152.66-160.12,223.53-45.03,56.44-94.68,112.45-144.71,164.54-27.76,28.53-59.71,60.15-89,87.22-101.12,92.74-209.28,179.54-329.45,246.4h0Z"/>
      <path d="M857.04,2209.99c76.45-45.11,147.13-99.46,214.9-156.6,92.82-78.83,179.42-165.72,258.7-258.14,39.1-45.16,78.4-94.93,114.06-142.89,9.08-12.22,25.07-34.7,34.12-47.13,8.5-12.18,24.39-35.42,33.02-47.91,8.54-12.92,23.55-35.97,31.91-48.65,8.02-12.8,22.84-36.64,30.79-49.37,25.18-41.94,55.2-94.77,82.28-135.2,19.75-29.85,41.28-59.86,63.18-88.16,158.76-204.83,389.66-368.91,652.24-396.74,11.06-.98,22.15-1.73,33.25-1.7-44.36,1.35-88.28,9.74-131.22,20.54-172,44.57-326.67,143.58-450.54,269.69-62.06,63.19-117.08,133.14-165.41,207.32-24.85,37.69-54.01,89.15-77.46,128.11-7.98,12.74-22.9,36.66-30.94,49.47-8.34,12.63-23.6,35.92-32.07,48.75-8.66,12.49-24.58,35.7-33.18,48-7.86,10.86-23.93,33.09-31.77,43.89-8.21,10.81-24.49,32.25-32.77,43.15-19.02,24.25-43.12,54.12-62.95,77.72-13.96,16.3-29.35,34.4-43.74,50.32-26.43,29.75-57.74,62.77-85.64,91.05-112.01,111.23-233.76,215.29-370.78,294.48h0Z"/>
      <path d="M906.95,2212.77c73.38-44.81,141.23-98.23,206.31-154.25,93.24-80.75,179.9-169.73,259.24-264.16,23.15-27.24,48.66-59.59,70.63-87.85,11.27-15.16,27.68-36.57,38.44-51.69,3.75-5.25,20.21-28.09,23.51-32.68,8.22-11.83,23.59-34.33,31.94-46.44,10.14-15.59,25.42-38.43,35.16-53.97,9.8-15.77,24.58-38.98,33.83-54.82,25.8-43.61,56.44-95.86,85.27-137.09,52.02-75.34,111.82-145.68,179.32-207.61,130.73-119.62,293.74-208.65,470.19-234.95,21.3-2.95,42.76-5.21,64.28-5.2-21.5.36-42.9,2.99-64.11,6.3-300.81,49.61-545.4,270.31-695.74,526.85-6.47,10.85-35.27,59.66-41.18,69.37-5.4,8.62-20.11,32.13-25.71,41.07-4.73,7.7-12.59,19.44-17.59,27.09-8.7,13.52-26.81,40.44-36.07,53.59-12.17,18.03-29.34,41.5-42.1,59.23-58.75,79.6-123.32,157.31-191.34,229.17-24.71,25.99-53.69,55.31-79.7,80.11-93.65,88.57-193.52,171.99-304.57,237.96h0Z"/>
      <path d="M956.85,2215.54c70.3-44.51,135.3-96.99,197.7-151.87,85.48-75.66,165.43-158.27,238.93-245.6,36.25-42.68,72.77-89.59,106-134.7,10.5-14.52,26.02-35.98,36.24-50.72,18.19-26.13,39.05-57.54,56.32-84.19,7.53-12.04,21.43-34.3,28.91-46.26,8.4-14.02,35.39-59.36,43.95-73.71,24.29-39.87,50.8-79.28,79.04-116.47,45.68-60.12,97.12-116.44,153.82-166.35,124.9-109.84,278.98-190.57,444.62-214.35,20.63-2.75,41.41-4.83,62.23-4.72-10.41.07-20.79.86-31.14,1.86-218.09,24.3-415.46,148.12-559.73,309.68-48.38,54.1-91.87,112.73-130.41,174.22-11.12,17.48-37.16,61.84-48.16,80.22-10.69,18.12-25.91,41.79-37.08,59.75-7.92,12.08-22.02,33.52-30.03,45.72-5.4,7.88-21.21,30.86-26.56,38.63-13.81,19.69-31.31,44.14-45.82,63.29-30.35,40.71-64.49,83.56-97.44,122.13-74.1,87.14-154.93,169.34-241.35,244.24-63.23,54.09-128.83,105.97-200.04,149.2h0Z"/>
      <path d="M1006.75,2218.32c67.2-44.2,129.34-95.74,189.06-149.48,76.25-68.94,147.91-143.68,214.53-222,9.94-11.65,21.56-25.86,31.38-37.59,18.5-22.8,40.38-50.67,58.19-74.03,8.58-11.67,23.11-30.96,31.34-42.41,5.83-8.16,20.42-28.61,26.26-36.79,13.95-20.31,32.89-47.88,46.28-68.73,27.22-41.03,57.54-92.3,82.93-134.81,32.89-53.69,69.33-105.48,109.88-153.67,144.22-172.96,349.64-306.12,577.4-326.55,10.03-.73,20.09-1.27,30.15-1.11-20.11.16-40.15,2.43-60.03,5.33-202,30.93-383.52,146.94-517.83,298.15-44.87,50.6-85.55,105.16-121.57,162.39-10.69,16.7-36.12,59.83-46.69,77.46-10.22,17.28-25.22,40.62-35.88,57.74-30.97,47.73-64.69,97.33-98.81,142.85-29.25,39.43-62.08,80.96-93.74,118.41-71.21,84.59-148.7,164.65-231.44,237.97-60.54,52.96-123.29,103.91-191.41,146.86h0Z"/>
      <path d="M1056.65,2221.1c64.08-43.89,123.35-94.48,180.39-147.07,72.82-67.45,141.37-140.21,205.24-216.21,35.19-41.97,70.91-87.31,103.25-131.6,32.55-44.06,65-91.82,94.72-137.86,10.29-16.52,24.66-38.95,34.51-55.62,10.42-17.27,34.8-58.36,45.41-74.76,39.14-61.57,83.82-119.96,133.9-173.05,129.63-137.66,302.3-240.52,491.49-265.42,19.28-2.34,38.7-4.06,58.13-3.77-19.42.07-38.78,2.15-57.99,4.84-180.53,26.54-345.46,123.54-471.88,253.03-48.96,50.22-92.95,105.49-131.91,163.77-8.94,13.5-18.89,29.08-27.39,42.84-12.35,20.42-36.35,61.29-48.95,81.07-32.84,52.92-69.32,106.86-105.92,157.23-33.97,46.31-71.09,93.72-108.07,137.63-65.83,77.79-136.7,152.05-212.2,220.46-57.85,51.83-117.73,101.84-182.74,144.51h0Z"/>
      <path d="M1106.55,2223.88c60.93-43.56,117.34-93.19,171.68-144.63,69.38-65.95,134.82-136.73,195.96-210.42,33.68-40.69,67.92-84.58,98.99-127.39,11.16-15.06,25.75-35.99,36.68-51.39,6.99-10.24,20.48-30.11,27.61-40.6,19.92-30.25,41.56-63.72,60.18-94.73,5.44-8.92,31.31-52.18,36.43-60.1,105.94-171.02,259.6-318.03,449.73-389.88,52.62-19.92,107.45-34.34,163.34-41.16,18.61-2.14,37.34-3.68,56.09-3.3-9.37-.07-18.72.51-28.05,1.25-46.61,4.04-92.63,13.87-137.27,27.74-161.15,50.04-301.77,154.25-408.2,283.94-32.61,39.57-62.68,81.52-89.74,125.1-13.92,22.24-37.05,62.08-51.06,84.03-24.18,38.86-51.32,79.87-77.54,117.34-23.36,33.4-50.24,69.6-75.2,101.82-124.39,157.94-264.97,306.02-429.63,422.38h0Z"/>
      <path d="M1156.45,2226.65c128.94-98.49,241.92-216.92,345.3-341.57,33.82-41.08,67.85-85.18,99.04-128.39,25.79-35.49,52.61-74.5,76.53-111.36,22.92-34.74,49.56-78.98,71.26-114.9,111.93-184.8,283.29-341.3,494.04-401.27,34.73-9.96,70.21-17.41,106.12-21.5,17.94-1.94,35.99-3.3,54.04-2.84-9.02-.11-18.03.39-27.02,1.05-44.91,3.62-89.29,12.78-132.39,25.81-190.86,57.38-349.84,193.2-459.73,356.96-9.68,14.52-20.15,30.49-29.18,45.39-16.05,26.69-40,66.41-56.67,92.29-23.69,37.13-50.21,76.38-75.8,112.27-20.19,28.38-43.39,59.39-64.8,86.86-117.02,148.65-248.13,288.59-400.73,401.18h0Z"/>
      <path d="M1206.35,2229.43c81.59-64.63,155.48-138.5,225.82-215.05,72.88-79.87,141.01-164.9,203.81-252.92,6.87-9.71,19.2-27.39,26.11-37.25,6.44-9.49,18.9-27.96,25.48-37.69,18.44-28.04,38.47-59.05,55.82-87.72,13.03-21.14,34.43-57.32,48.27-77.41,116.49-177.33,295.82-320.91,507.16-361.79,34.08-6.52,68.76-11.03,103.51-10.21-34.69-.09-69.24,5.03-103.14,12-170.1,36.01-321.32,137.91-432,270.33-30.56,36.4-58.7,74.97-84.03,115.2-13.04,20.53-34.61,57.3-47.61,77.65-22.47,35.95-47.57,73.96-71.72,108.78-18.92,27.21-41.13,57.96-61.19,84.38-115.58,151.63-245.2,294.73-396.29,411.72h0Z"/>
      <path d="M1256.25,2232.21c76.75-64.04,146.5-136.11,213.1-210.51,69.01-77.59,133.81-159.74,193.83-244.48,6.57-9.35,18.37-26.36,24.98-35.85,6.18-9.13,18.11-26.87,24.42-36.24,17.73-27,36.9-56.68,53.65-84.23,12.48-20.31,33.26-54.96,46.58-74.21,112.55-169.99,286.27-306.26,489.58-343.7,32.78-5.99,66.12-10.05,99.49-9.04-33.31-.28-66.52,4.38-99.14,10.81-197.74,40.02-365.32,170.64-477.41,335.33-16.5,23.54-38.14,59.46-53.29,84.37-7.4,12.23-18.85,30.2-26.59,42.41-17.34,27.16-37.14,56.82-55.43,83.36-18.11,26.17-39.34,55.78-58.47,81.25-110.26,146.24-232.96,284.91-375.29,400.74h0Z"/>
      <path d="M1306.15,2234.98c71.87-63.41,137.46-133.66,200.33-205.91,62.49-72.31,121.77-148.23,176.93-226.29,22.47-31.69,46.06-66.41,67.22-99.05,12.52-19.17,26.44-41.15,38.41-60.69,11.97-19.39,32.09-52.67,44.91-71.02,108.6-162.66,276.74-291.61,472.01-325.63,31.48-5.47,63.48-9.07,95.47-7.88-31.94-.47-63.82,3.73-95.14,9.64-133.28,25.94-256.01,95.38-352.66,189.99-42.67,41.76-80.78,88.13-114.21,137.59-12.62,18.12-32.85,51.67-44.64,70.85-24.79,40.26-51.88,81.6-78.62,120.6-17.3,25.14-37.55,53.6-55.76,78.12-104.94,140.87-220.75,275.09-354.24,389.69h0Z"/>
      <path d="M1356.05,2237.76c77.72-73.02,149.03-154.2,216.68-236.61,13.82-17.03,29.2-36.64,42.84-53.81,26.64-34.57,56.57-74.77,82.11-110.33,14.73-21.48,37.79-53.74,51.97-75.53,11.65-17.83,26.44-39.56,37.73-57.48,17.78-28.19,42.91-69.41,61.17-97.12,105.78-160.46,268.69-285.31,460.96-317.09,30.19-4.95,60.85-8.1,91.45-6.74-30.57-.66-61.11,3.09-91.15,8.47-139.17,25.65-266.57,100.59-363.45,202.84-28.81,30.38-55.36,63.05-79.44,97.29-15.22,21.26-35.57,54.42-49.61,76.97-8.75,13.89-28.01,45.1-36.92,58.18-9.16,13.82-22.61,34.09-31.73,47.85-11.67,17.37-34.1,48.85-45.97,65.94-85.05,117.68-177.92,230.73-280.19,333.84-21.41,21.49-43.72,43.23-66.46,63.32h0Z"/>
      <path d="M1405.95,2240.54c41.22-41.18,80.59-84.93,118.44-129.21,46.96-54.8,93.7-113.13,136.88-171,34.01-44.94,69.92-96,101.74-142.65,3.47-5.01,8.75-13.08,12.14-18.23,11.13-17.04,25.19-37.85,36.01-54.96,17.07-26.93,41.1-66.23,58.72-92.64,101.57-152.79,259.45-270.49,443.18-298.64,28.89-4.43,58.21-7.14,87.45-5.6-29.2-.84-58.41,2.46-87.16,7.32-179.5,31.46-330.16,142.9-431.91,291.54-11.58,16.3-30.53,47.06-41.42,64.39-13.51,21.64-33.35,52.99-47.45,73.84-5.56,8.48-15.71,23.7-21.19,32.03-15.46,22.25-37.59,54.69-53.52,76.36-81.04,112.58-169.21,220.97-265.31,321.02-14.92,15.55-30.94,31.63-46.6,46.43h0Z"/>
      <path d="M1455.86,2243.32c18.98-20.23,37.53-41.37,55.72-62.33,81.42-94.8,158.37-194.88,230.16-297.23,14.82-20.79,35.72-51.94,50.27-73.17,9.39-14.32,22.1-33.62,31.54-48.01,21.28-32.31,45.97-73.65,67.63-105.71,9.77-14.22,20.38-28.73,30.99-42.33,101.46-130.47,249.32-223.18,415.22-240.49,20.8-2.13,41.79-3.22,62.67-1.88-13.92-.63-27.87.04-41.74,1.12-198.77,16.78-368.15,138.89-473.34,304.55-24.73,39.35-53.33,84.7-79.12,123.15-25.52,38.65-56.55,82.55-83.61,120.22-65.65,90.1-135.11,177.75-209.39,260.91-18.52,20.68-37.52,41.42-57.01,61.19h0Z"/>
      <path d="M1505.76,2246.09c98.71-115.86,189.64-239.09,275.96-364.42,8.54-12.76,27.38-40.6,36.11-53.57,8.92-13.64,20.99-32.03,29.95-45.73,20.24-30.75,43.87-70.02,64.66-100.41,12.26-17.66,25.51-35.16,39.22-51.71,92.54-112.11,223.45-191.29,368.49-210.15,19.74-2.62,39.64-4.16,59.56-4.11,6.63.03,13.27.18,19.88.74-13.24-.71-26.51-.21-39.73.69-181.39,13.04-341.5,119.49-442.23,268.14-16.18,23.7-38.08,59.33-53.72,83.57-9.9,15.48-22.61,34.48-32.73,49.95-24.23,36.81-53.44,78.79-78.86,114.86-77.11,107.73-158.18,213.45-246.59,312.15h0Z"/>
      <path d="M1555.66,2248.87c100.48-128.78,195.01-263.1,285.31-399.21,23.55-35.61,48.73-74.83,71.72-110.95,16.76-26.45,35.44-52.78,55.56-76.75,72.47-87.61,171.03-154.5,281.19-183.98,48.67-12.81,99.38-20.23,149.72-16.69-6.28-.43-12.58-.48-18.87-.42-18.86.25-37.7,1.8-56.38,4.37-137.55,18.68-263.45,93.71-350.96,200.64-9.86,11.86-19.76,24.64-28.72,37.17-5.35,7.42-10.98,15.65-16.02,23.21-60.82,95.59-123.28,190.28-189.41,282.29-58.52,81.74-119.2,162.78-183.15,240.33h0Z"/>
      <path d="M1605.56,2251.65c89.41-126.2,176.46-255.06,261.25-384.43,17.42-26.68,41.13-63.19,58.28-90.04,9.43-14.61,19.67-30.74,29.74-44.81,15.56-21.8,32.73-43.09,51.04-62.64,51.03-54.72,113.43-99.17,182.74-127.59,66.21-26.84,138.57-41.57,210.09-36.3-11.89-.86-23.82-.69-35.72-.16-158.45,6.91-306.67,94.8-397.92,223.05-12.05,16.32-23.73,34.7-34.7,51.84-103.29,160.37-210.64,318.23-324.8,471.08h0Z"/>
      <path d="M1655.46,2254.43c94.48-149.65,195.45-305.79,292.1-454.57,10.56-16.22,21.77-33.57,33.41-48.98,82.38-112.67,209.97-188.79,349.76-200.33,22.46-1.91,45.1-2.48,67.52-.16-5.61-.5-11.23-.67-16.86-.76-16.86-.18-33.74.75-50.5,2.55-156.2,17.32-285.35,105.4-368.94,236.87-99.94,153.54-204.7,313.47-306.49,465.37h0Z"/>
      <path d="M1705.36,2257.2c56.78-101.69,117.05-201.89,178.86-300.6,22.08-35.43,45.69-72.1,68.41-107.26,10.16-15.38,24.69-38.21,35.01-53.19,66.4-97.38,167.51-169.22,283.5-193.19,41.52-8.57,84.42-12.56,126.65-8.01-10.55-.99-21.16-1.14-31.74-.96-52.85.95-105.45,11.61-154.8,30.38-79.01,29.93-148.28,83.11-199.91,149.76-12.91,16.3-24.91,34.41-36.23,51.92-22.28,33.88-47.29,72.58-69.1,106.73-68.09,106.6-135.9,215.84-200.66,324.43h0Z"/>
      <path d="M1755.26,2259.98c47.25-98.55,100.67-194.64,157.17-288.18,25.49-42.3,52.59-84.88,79.89-126.12,64.14-103.75,165.12-178.75,286.01-200.96,39.14-7.16,79.44-10.08,119.01-5.21-9.89-1.06-19.84-1.35-29.78-1.35-89.12.27-178.33,28.21-250.54,80.58-32.01,23.14-60.68,50.98-85.32,81.84-12.26,15.12-23.72,32.08-34.37,48.43-15.92,23.91-33.43,50.86-48.68,75.04-68.89,109.29-134.02,221.19-193.4,335.94h0Z"/>
      <path d="M1805.16,2262.76c27.27-68.93,59.85-136.76,94.63-202.22,34.73-65.4,73.39-130.24,114.72-191.71,81.87-131.54,228.16-203.29,382.38-184.76-36.93-3.89-74.46-1.29-110.91,5.35-92.07,16.66-175.05,65.02-234.01,137.75-8.76,10.63-17.1,21.94-24.79,33.38-85.78,127.02-160.46,261.8-222.01,402.21h0Z"/>
      <path d="M1855.06,2265.54c34.57-109.55,83.76-214.62,142.69-313.14,6.01-10.04,17.91-28.49,24.22-38.62,0,0,14.58-21.6,14.58-21.6,55.84-89.34,151.35-150.86,256.03-163.72,34.4-4.42,69.55-5.29,103.85.16-8.59-1.18-17.24-1.74-25.89-2.07-25.92-1-51.96.68-77.55,4.75-96.28,15-179.32,64.02-236.88,142.88-47.44,66.74-88.99,138.62-125.24,211.99-28.23,58.11-54.66,118.3-75.81,179.37h0Z"/>
      <path d="M1904.96,2268.31c18.63-82.45,48.49-162.31,85.89-238.06,8.85-17.53,18.73-36.31,28.64-53.25,14.04-24.27,29.43-48.46,45.76-71.24,6.89-9.8,14.6-19.66,22.52-28.66,53.43-61.95,130.94-98.71,211.86-106.66,32.04-3.11,64.63-2.98,96.36,2.73-31.79-4.46-64.24-3.9-96.03.09-79.93,9.72-155.1,46.22-207.92,107.57-7.78,8.89-15.33,18.6-22.09,28.28-44.28,62.03-80.21,129.77-110.01,199.85-21.75,51.85-40.81,104.88-54.95,159.35h0Z"/>
      <path d="M1954.86,2271.09c7.84-59,23.23-116.93,43.56-172.82,20.55-55.97,47.29-109.86,81.42-158.83,8.61-12,17.78-24.44,27.8-35.26,61.33-68.33,153.54-97.19,243.63-91.93,14.86.82,29.71,2.4,44.25,5.48-14.64-2.49-29.49-3.53-44.31-3.97-97.44-2.57-193.33,32.01-253.6,111.1-3.9,4.88-9.33,12.76-13.11,17.86-28.66,40.89-52.15,85.37-71.56,131.34-26.35,63.29-46.33,129.42-58.09,197.03h0Z"/>
      <path d="M2004.77,2273.87c2.18-54.71,11.77-109.06,27.01-161.64,7.74-26.31,17.15-52.19,28.61-77.13,9.91-21.79,21.71-43.09,34.99-63.03,1.06-1.54,6.37-9.26,7.32-10.63,2.84-3.78,6.48-8.59,9.32-12.37,9.07-11.46,19.23-22.35,30.21-31.99,67.91-59.93,166.48-73.45,252.85-54.8-26.81-4.96-54.3-6.27-81.5-4.83-79.62,3.98-154.1,35.41-201.74,101.17-4.18,5.38-9.36,13.03-13.26,18.66-2.51,3.93-5.7,8.94-8.21,12.87-1.73,2.94-6.02,10.23-7.75,13.17-1.76,3.22-4.32,7.96-6.08,11.19-7.08,13.38-13.71,27.54-19.65,41.44-28.72,69.24-45.74,143.27-52.12,217.92h0Z"/>
      <path d="M2054.67,2276.64c-5-95.97,12.62-213.52,70.39-292.5,29.42-40.72,71.63-67.62,120.27-79.26,48.93-11.71,100.66-10.17,149.29,1.96-36.6-7.61-74.56-9.14-111.66-4.72-50.54,5.91-100.49,26.44-135.72,63.92-17.95,19.15-32.42,41.63-44.12,65.07-35.76,73.17-49.07,164.48-48.45,245.52h0Z"/>
      <path d="M2104.57,2279.42c-13.03-87.95-10.79-209.25,49.07-280.37,33.91-40.43,87.34-58.61,138.83-60.25,34.26-1.16,68.8,2.99,101.7,12.6-44.11-10.33-90.58-13.12-135.16-4.77-38.53,7.28-75.79,25.6-101.26,55.94-58.49,69.83-61.74,189.74-53.18,276.85h0Z"/>
      <path d="M2154.47,2282.2c-17.93-70.37-30.81-179.99,9.1-244.08,42.38-65.09,132.02-66.36,200.24-50.56,10.1,2.3,20.12,5,29.9,8.4-56.93-15.11-126.72-21.95-180.87,5.18-23.12,11.78-41.08,29.54-52.04,53.16-29.58,64.19-19.66,159.77-6.33,227.9h0Z"/>
    </g>
    <g>
      <path d="M2380,142.24c-33.16,3.44-65.88,10.37-98.23,18.27-291.52,74.31-548.78,251.71-751.65,470.57-138.59,149.73-253.47,320.32-348.23,500.73-13.1,25.25-27.24,52.61-41.05,77.41-36.53,65.68-76.87,129.33-120.89,190.26-210.25,291.43-503.41,519.98-832.08,663.55-61.24,26.39-123.61,50.57-187.87,68.57,32.05-9.21,63.47-20.46,94.62-32.32,217.44-84.13,420.18-206.19,597.88-356.89,177.52-150.87,328.48-333.14,441.29-537.07,13.74-24.73,27.83-52.08,40.89-77.28,33.04-62.79,68.46-124.37,106.49-184.29,212.81-336.73,520.96-629.27,904.03-757.07,63.37-20.59,128.36-37.76,194.79-44.44h0Z"/>
      <path d="M2329.85,138.77c-32.42,3.57-64.37,10.55-95.96,18.48-221.14,57.45-422.69,177.16-593.77,326.96-97.7,85.92-186.26,182.65-264.81,286.31-94.1,122.76-173.06,256.82-243.55,394.34-5.44,10.09-12.26,22.11-17.81,32.17-17.74,31.35-37.54,64.09-57.13,94.34-17.04,26.45-36.87,55.44-55.38,80.89-225.29,310.93-547.06,549.27-906.01,683.68-30.65,11.16-61.56,21.7-93.04,30.26,47.01-13.54,92.81-30.94,138.08-49.41,292.92-122.06,558.82-311.63,764.4-553.81,62.93-74.16,120.76-154.12,171.24-237.26,8.66-13.9,19.58-32.99,27.93-47.28,4.23-7.59,10.56-19.04,14.8-26.68,10.55-19.04,29.57-55.96,40.02-75.62,42.16-79.24,88.27-156.62,138.81-230.83,75.5-111.47,161.54-216.36,257.37-310.97,154.15-151.41,336-277.18,538.48-354.39,0,0,5.71-2.19,5.71-2.19,0,0,5.74-2.12,5.74-2.12,0,0,11.5-4.21,11.5-4.21,0,0,11.55-4.05,11.55-4.05,65.5-22.43,132.85-41.14,201.83-48.6h0Z"/>
      <path d="M2279.71,135.3c-31.67,3.7-62.85,10.74-93.69,18.69-123.26,32.52-240.41,85.99-349.14,152.13-245.15,149.66-444.12,366.13-596.91,607.72-46.84,73.36-88.98,151.46-129.28,228.66-6.57,12-13.69,24.7-20.38,36.65-28.57,49.69-60.18,99.67-93.35,146.45-230.28,325.43-569.3,573.52-946.34,701.48-15.17,4.92-30.4,9.65-45.81,13.73,61.25-17.69,120.7-41.2,179.08-66.69,203.85-90.14,392.98-213.91,556.11-365.83,92.92-86.73,177.5-183.18,250.64-287.16,31.79-45,62.36-93.02,89.8-140.76,18.45-31.72,39.42-72.34,56.71-105.1,89.96-169.01,198.47-329.02,328.67-469.7,159.47-172.72,353.02-317.13,572.08-404.69,77.83-30.42,158.6-55.76,241.82-65.59h0Z"/>
      <path d="M2229.57,131.83c-30.91,3.84-61.34,10.92-91.42,18.89-150.25,40.93-291.01,112.76-418.09,202.14-60.19,42.3-117.96,89.53-171.97,139.45-128.3,118.96-238.61,256.72-332.09,404.42-45.75,71.69-86.94,147.99-126.39,223.39-13.14,23.93-26.66,47.71-40.79,71.07-17.91,29.59-37.59,60-57.15,88.51-119.55,173.59-270.74,324.79-442.18,447.14-152.44,108.17-319.81,196.65-497.5,255.27-14.83,4.77-29.73,9.35-44.8,13.3,15.02-4.14,29.85-8.91,44.61-13.87,249.82-86.75,480.6-227.72,674.74-406.98,113.83-105.72,214.36-226.2,297.25-357.62,20.67-32.83,40.32-66.53,58.89-100.57,39.44-75.63,80.85-151.93,126.77-223.78,35.35-55.57,73.64-110.9,113.84-163.07,168.27-219.05,383.67-406.98,638.09-518.42,85.71-36.87,175.34-67.41,268.19-79.28h0Z"/>
      <path d="M2179.43,128.36c-45.21,6.19-89.41,18.38-132.81,32.21-72.23,23.57-142.11,54.24-208.92,90.34-113.55,61.24-218.7,138.22-313.57,225.53-128.58,118.21-238.79,255.75-332.09,403.18-44.67,70.02-84.89,144.53-123.51,218.11-11.61,21.11-24.66,43.86-36.95,64.48-18.77,30.87-38.43,61.49-58.95,91.22-123.53,178.75-281.54,332.96-460.88,455.32-154.23,104.19-322.74,190.28-502.17,241.25,14.67-4.01,29.17-8.63,43.6-13.43,293.02-101.09,563.68-279.53,771.98-509.08,71.07-78.82,135.42-164.22,190.86-254.72,27.32-43.73,53.64-93.41,77.67-139.24,85.97-161.16,189.38-313.97,313.03-448.68,184.63-201.09,417.67-366.36,683.26-438.54,29.45-7.63,59.22-14.38,89.45-17.96h0Z"/>
      <path d="M2129.28,124.89c-58.72,8.79-115.77,26.69-171.33,47.29-264.1,100.7-488.19,288.22-661.78,508.76-96.79,121.97-177.4,256.21-248.72,394.41-15.99,28.96-33.26,58.63-50.84,86.61-21.62,34.43-44.85,68.76-69,101.5-198.18,269.99-477.71,477.1-788.87,599.01-41.56,16.01-83.68,30.8-126.78,42.14,28.64-7.85,56.74-17.5,84.61-27.71,305.11-114.28,581.4-309.61,784.56-564.88,43.86-55,84.1-112.94,120.68-173.01,13.17-21.56,26.56-45.16,38.85-67.36,68.1-131.98,144.7-260.32,236.05-377.65,176.81-228.44,407.37-422.94,680.51-523.75,55.81-20.14,113.13-37.38,172.04-45.37h0Z"/>
      <path d="M2079.14,121.42c-57.21,9.05-112.71,26.96-166.75,47.45-253.5,98.81-468.64,279.24-636.79,490.74-46.96,59.56-91.07,121.57-131.47,185.77-42.5,66.69-80.81,137.6-117.74,207.57-9.77,17.58-22.22,39.35-32.6,56.6-37.52,62.09-78.95,121.94-124.44,178.46-199.84,248.92-471.93,437.95-771.98,545.51-27.36,9.52-54.94,18.49-83,25.69,55.81-15.47,110.05-36.22,163.35-58.76,321.86-138.1,606.2-369.25,792.55-667.11,16.87-26.8,34.06-56.32,49.41-84.07,69.86-135.1,148.8-266.36,243.64-385.54,26.66-33.82,55.36-67.8,84.35-99.63,155.64-171.37,346.37-315.06,563.99-397.14,54.3-20.04,110.07-37.3,167.47-45.55h0Z"/>
      <path d="M2029,117.96c-83.44,14.58-163.33,45.47-239.65,81.57-203.51,98.21-378.65,248.68-521.28,422.82-98.32,119.89-181.34,252-252.72,389.5-9.15,17.22-21.18,38.85-31.08,55.57-39.35,67.07-83.62,131.51-132.47,192-186.4,231.42-437.36,408.64-714.24,515.11-39.62,14.97-79.76,28.78-120.8,39.3,27.27-7.3,54.06-16.32,80.61-25.87,346.8-127.38,655.63-365.48,853.01-679.18,12.65-20.22,26.27-42.64,37.92-63.47,11.71-20.31,29.05-53.47,40.25-74.42,71.7-133.93,155.94-261.63,254.6-377.33,139.66-163.8,309.46-304.73,504.96-396.62,76.8-35.39,157.09-65.61,240.88-78.99h0Z"/>
      <path d="M1978.86,114.49c-27.13,4.52-53.71,11.88-79.97,19.97-52.49,16.33-103.46,37.36-152.82,61.5-194.37,95.7-362.08,239.91-499.42,406.46-98.52,119.12-181.25,250.55-252.59,387.53-8.95,16.76-20.69,37.82-30.37,54.09-94.2,160.5-218.39,303.16-363.04,420.09-149.86,121.08-320.55,216.98-502.5,280.44-26.04,8.87-52.29,17.21-78.99,23.87,39.86-10.64,78.77-24.56,117.25-39.35,299.93-117.99,568.83-320.22,754.14-584.96,15.38-22.01,31.25-45.81,45.38-68.67,14.14-22.42,28.78-47.75,41.74-70.94,74.51-143.52,159.82-282.17,263.71-406.46,138.28-166.66,307.45-310.67,503.45-404.66,49.71-23.67,100.96-44.24,153.72-60.03,26.39-7.74,53.09-14.73,80.3-18.88h0Z"/>
      <path d="M1928.72,111.02c-26.37,4.66-52.18,12.07-77.66,20.19-50.95,16.38-100.38,37.28-148.24,61.17-203.44,102.31-376.46,258.31-515.56,437.4-86.77,110.57-158.96,231.58-224.08,355.93-9.05,16.16-20.78,36.35-30.38,52.2-35.04,57.22-73.63,112.32-116.07,164.3-194.93,238.91-462.62,417.58-756.43,510.14-12.83,3.85-25.71,7.54-38.72,10.69,51.73-13.81,102.07-32.5,151.54-52.86,172.67-72.2,333.65-172.96,472.76-298.18,70.64-63.59,135.62-134.08,193.23-209.68,5.49-7.37,12.48-16.72,17.96-24.09,1.76-2.46,12.54-17.55,14.56-20.37,5.3-7.39,11.85-17.21,17.05-24.75,3.51-5,12.98-19.68,16.54-25.09,14.17-21.96,28.66-45.72,41.6-68.48,5.98-10.43,13.9-24.62,19.4-35.05,63.58-121.7,136.4-239.23,221.76-346.91,139.08-175.8,311.37-328.74,513.6-427.72,48.21-23.42,97.93-43.87,149.15-59.72,25.62-7.77,51.55-14.82,78-19.12h0Z"/>
      <path d="M1878.57,107.55c-25.6,4.81-50.63,12.27-75.35,20.42-74.08,24.73-144.86,58.78-211.94,98.63-179.1,106.47-331.06,254.62-454.8,421.45-70.14,93.8-130.51,194.43-185.02,298.03-5.39,10.12-13.27,24.18-19.07,34.22-9.24,16.21-20.37,34.57-30.34,50.32-190.69,303.53-499.09,530.83-840.41,636.79-12.49,3.7-25.04,7.24-37.71,10.25,12.63-3.19,25.12-6.91,37.55-10.79,86.88-27.5,170.82-63.97,251.3-106.58,198.12-104.89,375.51-250.47,511.06-429.41,4.28-5.72,10.36-13.83,14.6-19.5,3.78-5.26,13.26-18.48,17.05-23.75,9.52-13.72,20.82-30.32,29.94-44.45,13.84-21.33,27.97-44.41,40.6-66.53,5.84-10.09,13.56-23.96,18.93-34.06,81.5-156.02,178.99-304.4,297.82-434.66,135.95-149.06,299.62-276.19,486.68-354.04,48.22-19.62,97.77-36.96,149.09-46.32h0Z"/>
      <path d="M1828.43,104.08c-24.83,4.95-49.08,12.48-73.02,20.65-47.85,16.48-94.22,37.11-139.06,60.51-292.51,154.14-513.34,417.5-668.13,705.44-20.6,38.81-42.48,78.46-66.23,115.52-186.63,295.23-486.1,514.14-818.95,616.23-12.16,3.55-24.37,6.94-36.7,9.82,49.01-12.7,96.74-30.02,143.67-48.93,257.05-105.29,488.41-277.74,652.64-502.66,27.75-37.9,54.1-78.21,77.94-118.72,7.33-12.76,16.31-28.37,23.17-41.3,29.76-55.93,60.7-111.35,94.66-164.87,148.33-235.05,347.3-445.22,596.65-572.98,45.2-22.95,91.85-43.14,139.97-59.11,24.08-7.83,48.45-15,73.37-19.6h0Z"/>
      <path d="M1778.29,100.61c-24.06,5.1-47.53,12.68-70.69,20.88-46.29,16.54-91.12,37.03-134.45,60.18-195.08,104.9-358.75,261.53-489.6,439.01-29,39.25-56.95,80.39-82.95,121.7-34.59,54.48-65.53,111.07-96.11,167.88-3.28,6.13-10.26,18.09-13.7,24.12-15.01,26.04-32.34,53.38-49.11,78.34-176.08,260.86-444.35,454.75-741.97,553.88-23.41,7.56-47,14.66-70.96,20.24,11.95-2.93,23.76-6.34,35.53-9.91,309.6-98.15,589.36-298.14,771.54-568.16,23.64-35.23,46.61-72.75,66.76-110.08,169.56-324.33,423.64-626.03,770.03-765.49,34.4-13.31,69.5-25.28,105.7-32.6h0Z"/>
      <path d="M1728.15,97.14c-11.66,2.55-23.12,5.91-34.51,9.47-79.53,25.48-154.68,63.46-225.27,107.81-181.82,114.55-332.17,273.94-452.58,450.9-47,68.86-88.95,141.31-128.16,214.85-22.74,41.67-48.48,83.07-75.74,121.93-171.5,245.43-428.26,426.93-711.81,520.03-22.75,7.24-45.67,14.02-68.95,19.33,23.19-5.66,45.99-12.79,68.61-20.36,244.91-83.86,469.05-232.4,635.9-430.87,36.18-43.34,69.96-89.01,100.28-136.66,14.02-21.86,28.58-46.31,41.16-68.99,35.2-65.75,71.96-131.04,113.06-193.33,124.32-189.49,282.67-360.17,476.37-479.8,71.28-43.59,146.88-81.01,226.96-105.35,11.45-3.39,22.97-6.57,34.67-8.95h0Z"/>
      <path d="M1678.01,93.67c-44.89,11.26-87.87,29.21-129.66,48.86-198.16,95.81-364.19,249-496.95,422.95-33.11,43.36-64.66,89.09-93.97,135.1-34.19,53.52-65.01,109.38-95.25,165.22-22.42,40.12-47.88,80.1-74.53,117.55-153.47,215.15-375.3,377.78-621.57,471.41-43.32,16.31-87.38,30.98-132.54,41.31,22.51-5.39,44.65-12.2,66.62-19.45,267.72-90.35,510.84-260.5,676.8-490.26,26.83-37,52.24-76.72,74.82-116.45,7.83-13.79,17.38-31.6,24.98-45.62,44.21-81.39,93.5-160.44,148.5-235,109.85-149.08,243.26-282.82,400.35-381.85,68.71-42.91,141.59-80.02,218.92-104.63,11.05-3.43,22.18-6.66,33.5-9.13h0Z"/>
      <path d="M1627.86,90.2c-178.47,52.56-343.99,177.59-472.68,309.47-13,13.14-27.47,29.37-40.15,42.88-7.34,8.41-25.78,29.5-33.11,37.93-9.76,11.91-22.17,27.03-31.93,38.93-6.97,8.81-23.85,30.98-30.75,39.87-65.53,87.2-122.54,180.8-174.14,276.88-5.34,9.9-11.08,19.56-16.72,29.29-11.2,18.98-23.6,38.76-35.89,57.1-15.2,22.83-32.41,46.8-49.21,68.44-168.65,217.56-410.65,375.93-674.7,451.58-10.82,2.94-21.68,5.74-32.65,8.09,10.92-2.52,21.74-5.49,32.5-8.6,75.24-22.09,148.15-51.92,218.15-87.16,169.75-85.39,323-205.49,441.02-354.83,22.3-27.97,44.12-58.44,63.84-88.29,16.65-25.66,32.88-52.19,47.54-78.99,60.94-113.59,129.93-223.74,211.41-323.83,7.54-9.11,19.26-23.32,26.83-32.47,7.51-8.57,25.88-29.42,33.37-37.95,58.48-63.94,122.64-124.29,191.49-176.99,62.48-47.53,129.15-90.08,200.05-123.9,40.46-19.27,82.21-36.49,125.73-47.44h0Z"/>
      <path d="M1577.72,86.73c-15.69,4.3-31.03,9.82-46.16,15.76-65.55,25.88-127.45,60.44-185.82,99.77-139.32,93.75-258.36,215.96-358.31,350.37-61.11,82.73-114.83,170.96-163.59,261.5-7.9,14.29-16.15,28.37-24.71,42.26-13.81,22.67-29.56,46.41-45.02,68.04-10.35,14.73-23.18,31.49-34.24,45.71-163.86,206.59-396.55,356.4-649.92,427.47-10.49,2.79-21.01,5.44-31.63,7.66,42.22-9.95,83.44-23.86,123.99-39.16,206.99-79.45,396.09-209.3,537.06-381.14,16.63-20.44,34.07-42.93,49.24-64.46,15.36-21.55,30.96-45.12,44.67-67.7,8.49-13.82,16.69-27.84,24.51-42.04,48.89-90.78,102.88-179.21,164.42-262.02,100.72-134.56,220.92-256.61,361.65-349.32,59-38.68,121.36-72.7,187.42-97.67,15.24-5.7,30.68-10.97,46.44-15.02h0Z"/>
      <path d="M1527.58,83.26c-40.06,12.33-78.28,30.24-115.32,49.71-18.21,9.61-37.04,20.46-54.55,31.19-133.73,82.42-250.02,191.69-348.64,313.52-79.38,97.33-146.79,204.3-206.56,314.63-10.14,18.33-21.09,36.5-32.26,54.23-19.59,30.79-41.13,61.45-63.68,90.18-152.45,194.68-369.05,335.81-604.91,407.51-20.13,5.92-40.39,11.43-60.95,15.64,40.88-9.35,80.81-22.53,120.11-37.06,207.9-78.19,397.6-209.19,535.71-383.98,17.44-22.2,35.16-46.21,50.82-69.67,11.67-17.22,22.88-35.12,33.55-52.99,9.18-15.36,22.03-38.75,30.87-54.69,50.54-91.93,107.96-180.55,172.74-263.15,103.82-131.73,227.51-249.93,371.84-336.39,17.74-10.57,36.68-21.18,55.05-30.58,37.31-19.1,75.83-36.45,116.16-48.1h0Z"/>
      <path d="M1477.44,79.79c-21.64,6.87-42.68,16.12-63.25,25.69-20.25,9.61-41.07,20.46-60.49,31.65-153.51,88.47-283.59,213.64-391.99,352.89-6.47,8.61-21.35,27.87-27.43,36.28-50.58,69.44-96.85,142.05-138.16,217.39-38.34,71.47-83.82,139.51-136.98,200.96-152.61,176.6-361.25,303.13-586.39,363.05-9.82,2.48-19.68,4.82-29.62,6.76,9.9-2.11,19.72-4.62,29.49-7.26,68.3-18.76,134.62-44.53,198.36-75.3,159.13-76.66,302.93-187.23,412.07-326.57,22.58-28.61,43.79-58.88,63.34-89.6,9.71-15.63,20.09-32.68,28.99-48.81,54.37-100.13,115.54-197.15,186.08-286.74,108.51-136.67,238.21-259.41,391.28-344.78,17.33-9.7,36.11-19.31,54.11-27.73,22.89-10.65,46.43-20.56,70.61-27.88h0Z"/>
      <path d="M1427.3,76.32c-18.38,6.27-36.42,14.34-53.92,22.78-19.24,9.18-39.61,20.28-58.11,30.96-147.28,86.72-271.99,207.84-376.88,341.92-60.96,79.09-115.79,163.14-163.98,250.59-141.83,269.79-406.91,464.8-700.3,540.18-9.49,2.33-19.01,4.52-28.61,6.33,38.16-8.25,75.5-20.08,112.25-33.16,187.57-68.02,360.02-181.91,488.53-335.26,31.24-37.32,59.99-76.75,85.6-118.13,7.33-11.74,15.56-25.57,22.32-37.68,52.64-96.45,111.61-190.01,179.37-276.61,110.22-139.75,242.64-265.36,400.02-350.39,30.07-15.84,61.35-30.92,93.69-41.51h0Z"/>
      <path d="M1377.15,72.85c-19.77,7.23-39,16.64-57.74,26.23-26.66,13.88-53.76,29.98-78.87,46.55-127.5,84.14-236.64,193.94-330.03,314.28-12.6,16.93-25.63,33.63-37.67,50.96-90.64,120.51-146.85,263.92-248.68,376.33-143.28,162.81-338.8,277.79-548.67,330.57-9.15,2.18-18.34,4.23-27.6,5.9,36.81-7.71,72.84-18.85,108.32-31.22,185.45-65.86,356.12-178.25,481.34-330.88,23.82-28.84,46.04-59.33,66.37-90.75,8.66-13.29,17.62-28.23,25.7-41.97,55.49-101.04,117-199.29,189.35-289.19,93.84-117.56,204.27-223.73,332.23-303.53,21.62-13.27,45.02-26.65,67.7-38.03,18.88-9.3,38.34-18.35,58.24-25.25h0Z"/>
      <path d="M1327.01,69.39c-18.81,7.42-37.15,16.91-54.94,26.5-25.47,13.99-51.01,29.81-74.97,46.25-121.11,83.09-225.05,189.58-314.41,305.68-12.08,16.32-24.53,32.43-36.09,49.12-86.87,116.11-141.39,253.85-239.89,361.51-132.53,149.41-311.42,255.13-503.48,307.79-17.5,4.62-35.11,8.89-52.93,12.05,70.77-14.89,139.26-39.77,204.98-69.68,159.93-73.03,303.3-184.77,405.62-328.36,23.45-32.49,44.97-68.12,64.41-103.24,59.65-106.7,128.74-208.53,208.5-301.27,76.97-88.84,163.94-170.34,262.01-235.48,22.31-14.83,46.17-29.38,69.76-42.08,19.8-10.64,40.39-20.82,61.43-28.77h0Z"/>
      <path d="M1276.87,65.92c-17.86,7.61-35.24,17.16-52.12,26.77-24.14,14-48.34,29.71-71.05,45.94-116.45,83.34-216.58,188.24-302.68,302.26-52.07,69.37-99.23,142.39-141.61,218.08-33.44,61.09-73.63,118.76-120.15,170.7-138.02,153.79-334.04,263.38-536.57,303.23,101.96-21.2,199.63-61.4,290.09-112.59,107.13-61.19,203.46-142.11,279.27-239.64,22.55-28.99,43.47-59.49,62.24-91.07,40.7-71.81,82.76-143.2,131.09-210.2,19.38-27.51,40.14-54.28,61.04-80.67,5.6-6.77,19.43-23.52,24.95-30.19,73.97-86.72,157.14-166.82,251.04-231.75,22.96-15.92,47.45-31.34,71.81-45.02,17.03-9.32,34.64-18.54,52.65-25.83h0Z"/>
      <path d="M1226.73,62.45c-26.24,12.33-51.33,27.95-75.56,43.83-27.55,18.38-54.49,38.58-80.17,59.49-86.83,71.12-164.11,153.89-232.43,242.82-15.25,19.74-30.06,39.84-44.34,60.29-79.37,107.32-130.54,233.77-222.39,331.96-134.99,147.85-320.36,249.26-516.75,286.65,65.38-12.69,128.81-34.56,189.76-61.15,159.65-69.73,302.38-181.86,398.65-327.91,13.21-19.6,26.99-43.24,38.7-63.93,65.68-116.08,142.41-226.55,232.29-325.27,61.71-67.72,129.81-130.39,204.75-183.24,20.28-14.2,41.66-28.18,63.11-40.56,14.31-8.2,29.28-16.34,44.39-22.99h0Z"/>
      <path d="M1176.58,58.98c-21.23,10.82-41.54,23.89-61.25,37.24-101.68,70.11-189.87,158.52-268.09,253.71-67.89,83.31-127.99,172.95-181.03,266.39-92.26,169.26-247.81,299.19-425.36,371.75-59.07,24.07-120.33,43.74-183.37,54.03,15.72-2.69,31.26-6.34,46.69-10.31,199.4-52.49,385.34-168.84,505.66-337.97,6.49-9.07,14.16-20.23,20.12-29.54,10.06-15.24,21.57-35.07,30.72-51.08,53.3-93.67,113.81-183.48,182.4-266.67,66.23-79.71,139.95-154.16,222.7-216.76,20.52-15.54,42.14-30.64,63.9-44.37,15.14-9.36,30.86-18.7,46.91-26.4h0Z"/>
      <path d="M1126.44,55.51c-52.81,30.4-100.46,69.1-145.72,109.68-78.98,71.4-149.28,152.4-212.2,238.18-49.54,67.45-93.98,138.65-135.42,211.34-5.66,9.56-12.15,19.84-18.28,29.17-8.07,12.32-17.52,25.8-26.37,37.56-61.73,82.83-141.05,152.01-229.72,204.67-91.94,53.97-193.43,93.55-298.86,110.59,15.05-2.43,29.92-5.77,44.71-9.42,158.08-40.07,307.43-121.42,420.28-239.93,31.31-32.95,59.9-68.81,84.78-106.87,6.1-9.31,12.47-19.45,18.08-28.96,45.32-79.48,94.37-157.1,149.95-229.83,41.24-54.53,86.49-107.19,134.48-155.91,56.45-56.71,117.22-109.71,184.7-152.94,9.45-5.94,19.66-12.15,29.59-17.32h0Z"/>
      <path d="M1076.3,52.04c-49.16,30.97-93.51,69.07-135.78,108.76-73.75,69.78-139.79,147.76-199.37,229.89-47.47,65.29-90.21,134.01-130.5,203.95-3.31,5.25-6.81,11.03-10.17,16.23-11.63,18.05-24.82,36.57-38.02,53.52-58.4,74.76-132.11,137.1-214.06,184.61-88.21,50.55-185.43,87.18-286.14,102.31,14.37-2.17,28.59-5.2,42.72-8.54,170.32-41.17,331.08-132.86,442.56-269.37,14.59-17.98,29.08-37.44,41.81-56.77,4.75-7.12,10.14-15.66,14.57-22.88,33.8-58.08,68.67-115.81,107.3-170.83,49.75-71.54,104.79-140.07,164.95-203.15,52.91-54.98,109.64-106.77,172.53-150.16,8.8-5.97,18.33-12.25,27.59-17.55h0Z"/>
      <path d="M1026.16,48.57c-67.88,47.68-127.07,106.69-182.88,167.75-55.39,61.55-106.42,127.18-153.15,195.52-37.47,53.84-70.95,110.5-104.61,166.77-5.54,8.82-11.27,17.53-17.26,26.05-9.58,13.81-20.72,28.56-31.4,41.54-81.31,99.68-191.74,173.33-311.72,218.28-51.89,19.14-105.56,34.37-160.48,41.43,13.7-1.91,27.26-4.64,40.74-7.66,160.74-36.92,313.49-120.85,420.26-247.87,13.07-15.44,26.11-32.52,37.63-49.17,7.89-11.28,15.33-22.87,22.5-34.62,38.28-65.75,78.81-130.38,123.52-191.97,25.11-34.82,52.1-69.5,79.61-102.49,16.4-19.46,34.11-39.77,51.38-58.51,56.6-60.52,116.81-118.81,185.84-165.05h0Z"/>
      <path d="M976.02,45.1c-62.17,48.32-116.69,105.76-168.48,164.86-51.39,59.49-99.14,122.29-143.26,187.34-33.35,48.72-64.17,99.05-94.23,149.86-3.48,5.6-7.01,11.17-10.64,16.68-10.79,16.36-22.71,32.61-34.98,47.92-28.95,35.89-62,68.6-98.03,97.36-103.05,81.47-229.14,134.46-359.34,151.4,51.94-7.29,102.78-21.71,151.84-40.07,116.19-43.54,223.13-115.1,300.94-212.38,7.88-9.94,16.3-20.95,23.52-31.34,7.56-10.65,14.68-21.61,21.55-32.72,69.63-119.04,148.06-233.35,239.65-336.65,52.56-58.56,108.09-115.3,171.45-162.25h0Z"/>
      <path d="M925.87,41.63c-14.07,11.87-27.88,25.05-41.07,37.92-81.76,80.68-153.64,171.04-219.91,264.69-9.78,13.88-27.17,39.94-36.73,53.84-11.39,17.81-29.18,44.7-40.22,62.7-10.83,17.78-27.94,45.92-38.8,63.69-9.91,15.82-20.64,31.35-32.03,46.17-75.84,99.56-184.62,171.08-302.39,211.34-47.12,15.87-95.74,28.17-145.27,33.14,49.27-6.23,97.6-19.19,144.3-35.91,119.28-42.69,228.89-116.89,304.3-219.53,12.59-16.93,24.84-36.03,35.69-54.23,9.22-15.02,25.03-41.06,34.1-55.72,9.23-14.25,26.34-40.68,35.54-54.82,9.63-13.88,27.24-39.93,37.11-53.77,68.66-96.02,143.9-188.14,230.26-268.86,11.25-10.45,23.17-21.01,35.13-30.64h0Z"/>
      <path d="M875.73,38.16c-25.13,24.36-49.07,50.72-72.08,77.13-59.47,68.42-114.57,141.48-166.11,216.05-27.32,40.01-56.31,83.98-81.55,125.29-8.54,13.75-23.73,39.11-32.51,52.43-8,12.28-16.74,24.39-25.76,35.96-72.41,93.53-176.41,159.33-288.18,195.67-44.74,14.25-90.85,25.1-137.69,29.03,46.61-5.18,92.43-16.69,136.77-31.78,113.31-38.4,217.84-107.09,289.87-203.42,12.03-15.9,23.7-33.82,34.04-50.97,6.23-10.1,21.75-35.28,27.74-45.01,22.51-35.84,48.71-75.48,72.89-110.24,60.65-86.51,125.97-170.12,198.72-246.82,14.18-14.76,28.7-29.54,43.84-43.32h0Z"/>
      <path d="M825.59,34.69c-18.3,20.25-36.28,42.01-53.58,63.2-51.77,64.36-101.18,131.49-147.68,199.78-40.2,58.35-79.54,120.77-116.77,180.99-69.75,109.36-180.24,183.24-303.18,220.7-42.37,12.64-85.96,22.06-130.13,24.95,43.96-4.14,87.29-14.21,129.27-27.68,115.08-36.63,221.39-106.91,290.03-207.38,10.61-15.36,25.29-39.88,35.41-55.9,22.52-36.39,48.36-75.71,72.34-111.26,57.6-84.36,118.79-166.87,185.42-244.32,12.64-14.55,25.54-29.17,38.88-43.08h0Z"/>
      <path d="M775.45,31.22c-75.34,98.75-145.72,202-213.41,306.15-22.29,34.21-45.06,70.25-66.73,105-10.95,17.69-22.91,34.95-36.1,51.08-79.01,97.9-198.24,156.92-320.74,178.42-20.46,3.55-41.1,6.26-61.84,7.06,10.35-.64,20.65-1.9,30.91-3.36,30.76-4.39,61.17-11.26,90.89-20.27,103.66-30.82,200.61-90.38,265.9-177.6,14.74-19.11,29.57-44.22,42.65-64.73,21.38-34.09,45.35-70.96,67.6-104.58,63.43-94.75,129.12-188.5,200.85-277.17h0Z"/>
      <path d="M725.31,27.75c-81.23,125.83-170.81,265.81-250.95,392.21-71.61,118.2-203.03,188.63-337.34,208.29-19.21,2.89-38.56,4.97-57.97,5.28,9.69-.4,19.35-1.37,28.97-2.53,28.85-3.48,57.43-9.27,85.4-17.08,88.25-24.33,171.91-70.14,233.04-139.07,9.55-10.76,18.66-22.18,27.05-33.86,27.2-40.08,52.21-81.65,78.77-122.17,62.54-96.93,127.66-196.04,193.04-291.08h0Z"/>
      <path d="M675.16,24.28c-67.96,127.7-143.25,251.5-221.61,373.05-67.61,109.88-192.54,172.25-317.98,187.28-17.96,2.23-36.04,3.69-54.13,3.52,9.04-.16,18.06-.84,27.05-1.71,26.95-2.58,53.71-7.3,79.94-13.92,69.72-17.29,136.76-48.76,190.87-96.46,55.18-47.31,88.47-113.29,127.94-173.13,57.77-91.64,114.25-184.51,167.93-278.63h0Z"/>
      <path d="M625.02,20.82c-17.42,42.68-37.51,84.45-58.42,125.53-40.11,78.4-85.11,154.67-133.67,228.1-63.69,101.74-182.05,156.17-298.79,166.5-16.72,1.57-33.54,2.42-50.32,1.78,8.39.08,16.77-.33,25.13-.9,91.15-6.74,183.25-36.07,253.83-95.55,25.45-21.51,47.59-46.74,65.53-74.9,4.72-7.16,16.19-24.64,20.7-31.52,38.18-59.59,75.07-121.67,108.63-184.01,23.81-44.25,46.82-89.18,67.38-135.04h0Z"/>
      <path d="M574.88,17.35c-10.82,37.16-24.78,73.65-39.81,109.3-27.22,63.92-59.95,126.83-97.05,185.6-24.64,39.63-50.82,79.36-88.29,108.18-61.35,48.79-139.54,72.1-216.97,76.83-15.5.92-31.06,1.17-46.53.08,7.75.3,15.5.18,23.24-.11,105.7-4.12,216.75-42.16,283.49-127.88,2.5-3.25,6.22-8.18,8.57-11.57,32.71-47.38,63.34-97.82,90.01-148.88,27.06-51.33,51.23-104.38,71.73-158.67,4.03-10.79,8.07-21.93,11.62-32.88h0Z"/>
      <path d="M524.74,13.88c-12.93,70.26-36.91,138.32-67.53,202.77-18.54,38.65-40.12,76.06-64.69,111.2-57.35,86.95-160.43,123.92-261.12,125.69-14.28.28-28.59-.05-42.78-1.6,7.11.53,14.25.67,21.37.67,21.35.04,42.73-1.55,63.84-4.65,69.76-9.93,139.29-37.68,187.98-89.98,9.58-10.12,18.42-21.7,26.29-33.22,64.79-93.52,111.08-200.06,136.64-310.88h0Z"/>
      <path d="M474.59,10.41c-7.72,104.36-44.68,217.46-107.63,301.62-53.57,73.56-149.41,100.51-236.88,97.76-13.08-.35-26.15-1.26-39.07-3.24,12.98,1.43,26.05,1.84,39.09,1.83,85.42-.26,178.11-26.47,231.19-97.55,8.02-10.83,16.34-22.64,23.45-34.1,5.8-9.07,11.98-20.02,17.17-29.47,38.9-73.33,63.1-154.44,72.68-236.84h0Z"/>
      <path d="M424.45,6.94c3.22,79.88-12.78,172.31-51.78,242.6-7.27,13-15.48,25.92-24.68,37.61-3.08,4.31-8.1,9.81-11.6,13.87-4.17,4.26-8.45,8.73-13.02,12.58-52.54,46.27-126.77,57.78-194.55,52.39-11.89-.95-23.74-2.45-35.41-4.84,35.29,5.15,71.25,5.2,106.5.2,52.15-7.25,104.4-29.11,138.45-70.48,12.19-14.66,22.86-30.93,31.97-47.69,9.8-18.16,18.02-37.38,24.85-56.83,19.54-57.62,28.96-118.58,29.27-179.4h0Z"/>
      <path d="M374.31,3.47c11.68,79.21,7.46,184.67-39.94,252-45.55,66.42-132.51,77.86-206.77,66.7-10.71-1.57-21.36-3.6-31.8-6.41,31.7,6.48,64.23,8.69,96.45,6.32,39.71-2.94,80.14-14.42,111.16-40.22,22.54-18.84,38.52-44.48,49.43-71.55,24.92-63.62,27.94-139.29,21.47-206.83h0Z"/>
      <path d="M324.17,0c17.85,69.91,32.73,192.43-22.64,248.1-45.82,44.54-116.64,43.27-175.09,30.19-9.54-2.17-19-4.73-28.24-7.93,46.31,12.32,97.2,17.89,143.99,5.45,45.88-12.75,74.11-41.6,85.76-87.66,14.94-60.5,7.85-127.49-3.78-188.15h0Z"/>
    </g>
  </g>
</svg>