<?xml version="1.0" encoding="UTF-8"?>
<svg id="Layer_2" xmlns="http://www.w3.org/2000/svg" viewBox="0 0 2054.59 1917.48">
  <defs>
    <style>
      .cls-1 {
        fill: none;
        stroke: #000;
        stroke-miterlimit: 10;
        stroke-width: 2px;
      }
    </style>
  </defs>
  <g id="Layer_1-2" data-name="Layer_1">
    <g>
      <path class="cls-1" d="M35.45.99s127.96,18.49,339.23,115.71,652.51,497.32,822.64,497.32,278.02-193.29,399.17-306.52c213.12-199.18,429.05-213.21,429.05-213.21"/>
      <path class="cls-1" d="M32.79,136.54s123.46,7.84,334.59,88.58c84.92,32.47,206.84,107.59,334.3,191.18,188.57,123.66,386.21,260.11,500.6,258.96,46.5-.47,88.92-13.98,128.53-36.27,102.94-57.94,189.87-166.61,278.73-238.01,212.43-170.68,417.11-177.24,418.17-166.45"/>
      <path class="cls-1" d="M30.13,272.09s119.2-2.93,329.95,61.45c85.93,26.25,209.16,90.05,339.06,166.95,187.12,110.77,381.81,238.38,508.1,235.99,46.26-.87,89.04-13.38,129.35-34.44,103.12-53.87,195.64-146.68,285.99-207.6,210.67-142.04,405.17-141.28,407.29-119.69"/>
      <path class="cls-1" d="M27.47,407.64s115.15-13.9,325.31,34.33c87.04,19.97,211.28,72.59,343.81,142.72,185.38,98.1,377.41,216.73,515.61,213.03,46.02-1.23,89.15-12.79,130.18-32.6,103.24-49.84,200.81-126.6,293.25-177.18,207.57-113.59,393.23-105.31,396.4-72.93"/>
      <path class="cls-1" d="M24.81,543.19s111.29-25.1,320.66,7.2c88.22,13.61,213.22,55.25,348.56,118.49,183.35,85.68,373,195.15,523.11,190.07,45.77-1.55,89.24-12.23,131.01-30.77,103.33-45.87,205.29-106.53,300.5-146.77,202.96-85.79,381.29-69.35,385.52-26.17"/>
      <path class="cls-1" d="M22.15,678.74s107.56-36.56,316.02-19.93c89.46,7.14,214.99,38.07,353.32,94.26,181.07,73.56,368.6,173.66,530.62,167.11,45.53-1.84,89.31-11.68,131.83-28.94,103.38-41.95,209.09-86.71,307.76-116.36,196.86-59.15,369.34-33.39,374.64,20.59"/>
      <path class="cls-1" d="M19.49,814.3s104.08-38.44,311.38-47.05c90.66-3.77,216.61,21.11,358.07,70.03,178.58,61.76,364.2,152.24,538.12,144.15,45.29-2.11,89.37-11.16,132.66-27.11,103.41-38.09,212.28-67.45,315.02-85.95,189.53-34.13,357.4,2.58,363.76,67.35"/>
      <path class="cls-1" d="M16.83,949.85s100.27-60.36,306.73-74.18c92.01-6.16,218.11,4.41,362.82,45.81,175.92,50.33,359.81,130.9,545.63,121.19,45.05-2.35,89.43-10.66,133.49-25.27,103.4-34.29,221.06-19.7,322.27-55.54,171.38-60.69,345.46,38.54,352.87,114.11"/>
      <path class="cls-1" d="M14.17,1085.4s96.58-72.68,302.09-101.31c93.27-12.99,219.51-11.99,367.58,21.58,173.16,39.26,355.42,109.65,553.13,98.23,44.81-2.59,89.47-10.19,134.31-23.44,103.38-30.55,220.09-2.01,329.53-25.13,169.9-35.89,333.52,74.51,341.99,160.87"/>
      <path class="cls-1" d="M11.51,1220.95s92.8-85.23,297.45-128.43c94.48-19.94,220.88-28.04,372.33-2.65,170.36,28.56,351.04,88.48,560.64,75.27,44.57-2.81,89.51-9.74,135.14-21.61,103.35-26.88,221.02-15.71,336.79,5.28,165.8,30.06,321.58,110.47,331.11,207.63"/>
      <path class="cls-1" d="M8.85,1356.5s88.87-97.99,292.81-155.56c95.62-27,222.26-43.72,377.08-26.88,167.58,18.23,346.66,67.39,568.15,52.31,44.33-3.02,89.55-9.33,135.97-19.78,103.31-23.26,224.89-.75,344.04,35.69,159.34,48.73,309.64,146.43,320.23,254.39"/>
      <path class="cls-1" d="M6.19,1492.05s84.77-110.89,288.16-182.69c96.69-34.13,223.71-59.01,381.83-51.11,164.91,8.24,342.3,46.39,575.65,29.35,44.09-3.22,89.58-8.94,136.79-17.94,103.27-19.7,229.73,13.39,351.3,66.1,154.25,66.89,297.69,182.4,309.34,301.15"/>
      <path class="cls-1" d="M3.53,1627.6s80.5-123.9,283.52-209.82c97.67-41.33,225.3-77.74,386.59-75.34,162.4,2.41,337.94,25.47,583.16,6.39,43.86-3.41,89.62-8.58,137.62-16.11,103.24-16.19,235.59,27.07,358.56,96.51,150.59,85.03,285.75,218.36,298.46,347.91"/>
      <path class="cls-1" d="M.87,1763.15s167.88-302.42,670.22-336.51c187.32-12.71,392.85,10.67,729.11-30.85,227.15-28.04,628.16,264.34,653.39,521.59"/>
    </g>
  </g>
</svg>