<?xml version="1.0" encoding="UTF-8"?>
<svg id="Layer_2" xmlns="http://www.w3.org/2000/svg" viewBox="0 0 2068.87 2363.83">
  <g id="Layer_1-2" data-name="Layer_1">
    <g>
      <path d="M39.96,2363.83c474.27-69.95,991.18-293.13,1283.05-686.28,14.47-19.45,30.53-42.44,45.2-61.8,18.95-25.26,39.23-50.88,59.53-75.08,86.08-102.82,184.45-195.86,294.92-272.12,99.86-68.27,209.4-125.56,327.44-154.35,6.22-1.42,12.46-2.75,18.76-3.78-12.55,2.27-24.92,5.48-37.2,8.89-73.61,21-143.67,53.09-210.15,90.78-197.13,112.33-358.88,278.24-488.55,462.91-9.43,12.8-19.18,25.7-29.04,38.14-79.27,100.32-172.9,188.95-275.41,265.2-184.69,137.36-396.21,235.64-615.33,304.18-121.94,37.37-246.57,67.44-373.22,83.31h0Z"/>
      <path d="M2068.87,971.62c-49.52,13.51-97.51,32.14-144.62,52.4-223.14,97.68-423,247.86-579.58,434.38-20.38,24.22-40.7,49.98-59.55,75.4-18.93,25.31-37.35,52.8-56.64,77.84-28.92,38.3-60.6,75.33-93.5,110.26-269.44,282.65-644.19,446.46-1023.85,517.23-25.29,4.4-50.65,8.46-76.16,11.35,12.74-1.54,25.43-3.47,38.1-5.51,189.64-31.95,375.1-89.74,549.72-170.19,188.66-87.44,365.18-204.91,508.4-356.48,28.42-30.02,55.95-62.04,81.56-94.51,19.57-25.03,38.48-51.58,56.89-77.5,165.89-228.85,394.15-412.29,654.07-523.56,47.28-19.96,95.47-38.15,145.16-51.14h0Z"/>
      <path d="M2068.87,832.82c-98,32.5-192.29,75.66-283.4,124.04-193.1,103.2-371.82,236.46-515.75,402.14-29.47,34.1-57.53,69.55-83.71,106.24-36.56,53.15-75.7,105.07-119.22,152.76-45.28,50.3-95.03,97.41-147.13,140.6-52.15,42.99-108.01,82.83-165.31,118.67-197.73,122.47-419.54,205.11-647.82,248.21-25.41,4.6-50.9,8.8-76.56,11.7,12.82-1.54,25.58-3.52,38.31-5.61,212.74-36.96,419.89-109.15,608.77-213.85,41.81-23.29,83.82-49.17,123.48-75.99,69.04-47.01,135.12-99.74,195.24-157.75,32.37-30.95,63.58-64.39,92.71-98.45,33.45-39.17,64.11-80.85,93.41-123.22,209.19-292.96,547.69-516.13,886.98-629.48h0Z"/>
      <path d="M2068.87,694.02c-121.81,44.99-239.21,101.46-352.77,164.26-180.9,101.21-352.31,222.76-495.32,373.55-31.08,33.02-60.79,67.45-88.55,103.31-11.4,14.92-23.9,31.65-34.53,47-82.92,124.59-186.51,235.25-305.72,325.74-219.6,166.78-494.06,278.3-767,315.98,102.92-14,203.86-40.98,302-74.6,306.09-104.64,587.63-297.37,766.57-570.03,10.66-15.38,23.28-32.22,34.71-47.16,11.88-15.25,24.38-30.73,36.87-45.49,226.9-266.54,577.21-472.42,903.75-592.56h0Z"/>
      <path d="M2068.87,555.21c-328.56,133.19-707.73,347.27-950.02,607.96-26.53,28.7-51.97,58.6-75.76,89.61-19.94,25.52-38.3,53.06-56.6,79.84-10.64,15.45-23.27,32.63-34.67,47.63-29.66,38.93-62.02,76.39-95.89,111.7-211.95,218.75-498.33,360.35-797.13,413.11-12.9,2.11-25.83,4.05-38.82,5.47,38.9-4.85,77.34-12.86,115.49-21.8,278.51-67.31,542.4-209.45,737.1-421.49,21.73-23.8,43.48-49.07,63.34-74.52,15.88-20.04,31.95-41.91,46.5-62.92,18.32-26.85,36.69-54.46,56.69-80.08,23.92-31.12,49.46-61.1,76.12-89.9,62.26-67.1,131-128.36,202.95-184.86,123.63-96.75,257.19-180.23,395.26-254.69,115.24-61.6,233.54-117.89,355.43-165.06h0Z"/>
      <path d="M2068.87,416.41c-193.64,81.99-381.23,178.67-560.6,288.37-128.48,79.41-252.84,166.2-366.12,266.28-16.34,14.3-34.97,31.68-50.77,46.63-25.69,24.76-51.58,51.13-75.43,77.68-44.36,48.56-83.18,101.55-119,156.61-7.58,10.77-15.03,21.64-22.93,32.19-6.62,9.22-16.85,22.46-23.83,31.53-105.55,134.97-239.25,247.23-389.23,329.82-126.74,69.7-264.45,120.48-406.93,146.03-12.96,2.21-25.96,4.25-39.04,5.65,39.14-4.89,77.75-13.4,115.98-22.99,212.87-55.01,413.39-160.66,575.43-309.69,79.89-73.18,149.55-157.18,208.51-248.01,230.79-346.53,772.51-641.93,1153.96-800.1h0Z"/>
      <path d="M2068.87,277.61c-193.78,85.08-382.38,182.21-564.46,290.05-150.28,89.87-296.6,187.48-429.85,301.37-37.12,31.89-74.39,66.43-108.72,101.31-41.31,42.35-80.84,87.59-114.97,135.97-7.87,10.65-25.54,38.02-33.09,49.41-6,9.25-13.34,19.66-19.56,28.78-2.25,3.16-12.1,16.88-14.49,20.2-167.65,230.96-417.44,399.89-695.62,465.16-25.8,5.86-51.82,11.02-78.12,14.03,26.26-3.25,52.22-8.65,77.95-14.75,250.68-60.83,479.3-205.95,643.56-404.5,21.81-26.37,43.38-54.71,63.05-82.7,3.99-5.84,9.98-14.57,13.99-20.44,7.55-11.2,25.11-38.62,32.83-49.7,239.21-346.63,840.39-667.93,1227.49-834.18h0Z"/>
      <path d="M2068.87,138.8c-194.04,87.9-383.61,185.83-567.87,292.69-155.07,90.61-306.83,187.76-447.85,299.19-30.98,24.5-62.31,50.57-91.87,76.75-49.58,43.71-97.72,90.86-140.87,140.96-1.89,2.33-14.27,16.91-16.04,19.07-6.79,8.65-15.02,18.58-21.53,27.43-11.06,14.57-24.57,33.48-34.33,48.9-52.99,84.78-114.32,164.69-185.75,234.8-142.17,139.9-322.14,245.02-518.32,285.67-13.07,2.56-26.21,4.84-39.45,6.29,52.81-7,104.34-21.8,154.53-39.34,239.13-84.81,440.38-259.22,574.49-472.97,6.05-9.53,12.8-19.9,19-29.42,1.61-2.26,12.42-17.85,14.32-20.54,4.43-5.94,13.65-18.47,17.99-24.05,3.15-3.95,9.31-11.75,12.44-15.69,3.88-4.99,14.94-18,19.19-23.1,38.77-45.24,82.07-88.28,126.19-128.31,49.27-44.48,101.57-86.81,154.56-126.78,127.84-96.05,263.03-182.12,401.42-262.07,184.75-106.19,374.79-203.38,569.73-289.49h0Z"/>
      <path d="M2068.87,0c-291.34,136.01-575.96,287.92-845.87,462.87-156.46,102.84-309.76,213.19-441.16,347.25-37.22,38.39-72.32,79.01-102.94,122.89-12.17,17.27-24.04,36.92-35.26,54.89-117.03,185.16-283.53,344.8-488.8,426.9-43.63,17.29-88.66,31.47-134.93,39.59-6.61,1.12-13.24,2.15-19.91,2.83,13.31-1.59,26.47-4.23,39.54-7.18,65.3-15.02,128.06-39.94,187.39-70.86,178.68-93.11,322.22-243.93,425.98-415.12,49.41-80.23,114.62-149.4,183.3-213.37,198.48-181,427.64-324.54,659.79-457.97C1682.61,186.95,1873.61,88.8,2068.87,0h0Z"/>
    </g>
  </g>
</svg>