<?xml version="1.0" encoding="UTF-8"?>
<svg id="Layer_2" xmlns="http://www.w3.org/2000/svg" viewBox="0 0 2331.67 2282.2">
  <g id="Layer_1-2" data-name="Layer_1">
    <g>
      <path d="M27.9,2168.33c30.44-11.91,60.02-25.89,89.27-40.42,320.49-162.99,596.59-406.11,819.37-686.82,101.23-127.9,190.75-265.24,269.78-407.91,7.27-12.99,17.13-30,24.61-42.49,74.95-126.77,161.37-247.19,260.81-355.93,159.58-175.02,355.28-321.06,578.03-404.63,68.89-25.69,140.26-45.74,213.11-56.18,16.19-2.26,32.45-4.14,48.78-4.81-65.19,4.63-129.21,20.31-191.48,39.61-62.21,19.65-122.87,44.58-181.2,73.75-109.53,54.56-211.32,124.14-304.2,203.66-105.06,90.37-198.99,193.73-281.5,304.96-58.36,78.36-111.48,161.18-159.53,246.27-83.08,150.25-178.09,294.47-286.22,427.88-159.31,197.2-346.07,372.87-555.77,515.59-108.45,72.81-222.06,139.59-343.87,187.46h0Z"/>
      <path d="M125.32,2173.75c57.87-23.93,113.17-53.68,167.36-84.94,412.7-242.13,740.37-612.09,968.3-1030.01,51.4-87.91,108.05-173.26,171.35-253.08,183.43-233.13,427.24-428.46,714.14-514.74,60.04-17.59,121.7-31.54,184.32-34.86-7.82.35-15.62,1.1-23.4,1.96-62.17,7.24-123.22,22.7-182.57,42.32-230.33,77.16-432.66,224.4-595.47,402.88-47.34,51.68-91.99,106.74-133.25,163.38-41.4,56.62-80.23,115.8-115.95,176.16-5.97,9.92-17.88,30.42-23.53,40.55-76.03,137.06-162.07,268.76-259.31,391.77-87.51,110.62-183.57,214.73-287.62,309.98-127.17,116.28-266.04,220.35-415.84,305.7-54.57,30.72-110.28,59.78-168.52,82.91h0Z"/>
      <path d="M222.75,2179.17c55-23.67,107.52-52.78,158.98-83.3,371.75-224.74,673.39-555.88,888.3-931.56,12.85-22.26,31.79-56.19,44.99-77.85,17.01-28.71,35.57-57.87,53.88-85.72,43.44-65.35,90.94-129.11,142.15-188.58,92.62-108.2,199.03-205.29,317.97-283.87,143.78-93.89,306.66-165,478.47-183.7,7.46-.68,14.93-1.26,22.41-1.46-29.9,1.57-59.54,6.5-88.86,12.39-309.29,65.8-573.97,268.7-766.93,513.51-34.5,43.52-67.76,89.95-98.48,136.18-26.4,40.12-52.47,82.36-76.17,124.19-145.22,262.18-330.96,502.92-554.78,702.77-134.08,119.63-280.89,226.08-440.54,308.99-26.68,13.61-53.64,26.74-81.39,38.03h0Z"/>
      <path d="M320.17,2184.6c52.13-23.42,101.86-51.89,150.57-81.66,97.2-60,189.16-128.34,275.87-202.64,184.26-157.85,344.43-343.27,477.79-545.81,29.2-44.59,57.54-90.5,84.24-136.62,22.25-38.87,46.9-82.42,70.9-120.09,30.29-48.18,63.2-96.03,97.76-141.23,180.69-237.98,430.29-436.35,724.66-507.36,41.72-9.73,84.18-17.41,127.06-19.09-7.14.26-14.26.88-21.37,1.59-106.45,12.04-209.58,46.55-306.08,92.3-212.93,101.6-391.58,265.54-530.94,454.35-33.67,45.38-66.05,93.71-95.64,141.84-19.35,31.32-40.94,69.69-59.3,101.76-20.45,35.47-42.19,70.91-64.12,105.45-199.46,311.08-462.74,585.23-779.65,777.46-49.1,29.25-99.23,57.07-151.74,79.74h0Z"/>
      <path d="M417.6,2190.02c146.65-71.74,279.22-169.79,402.48-276.15,53.09-46.51,105.9-96.86,154.72-147.79,9.93-10.56,24.95-26.46,34.95-37.08,7.92-8.77,32.49-36.1,40.9-45.45,9.65-11.28,30.68-35.77,39.8-46.42,11.48-14.21,33.61-40.85,44.95-55.38,11.49-14.91,25.98-33.44,37.39-48.37,3.24-4.41,26.29-35.73,30.19-41.04,3.6-4.94,8.62-11.57,11.97-16.49,10.39-15.12,30.38-43.23,40.61-58.64,10.26-15.62,23.32-35.48,33.58-51.09,3.4-5.07,23.2-37.31,26.92-43.25,28.28-45.13,55.41-95.03,83-140.56,27.91-46.3,58.63-92.57,90.52-136.23,64.3-87.89,137.29-170.25,218.59-242.78,152.25-135.43,337.16-239.74,538.87-276.98,26.81-4.66,53.86-8.44,81.08-9.21-27.18,1.17-54.16,5.35-80.86,10.4-193.7,38.39-371.64,138-519.5,267.14-86.8,75.85-164.18,162.82-231.96,255.97-31.71,43.51-62.25,89.62-89.99,135.77-27.56,45.56-54.59,95.57-82.96,140.65-3.56,5.68-23.55,38.14-27.05,43.35-10.3,15.63-23.44,35.57-33.74,51.2-10.29,15.46-30.3,43.55-40.79,58.77-3.74,5.45-8.24,11.35-12.02,16.53-7.37,9.85-28.85,39.5-36.57,49.21-8.81,11.3-22.57,28.95-31.42,40.3-7.16,9.29-25.34,31-32.29,39.6-23.87,29.17-55,64.63-80.49,92.49-14.56,16.37-33.87,36.22-48.97,52.13-49.2,50.69-102.47,101.07-155.99,147.21-124.24,105.58-257.93,202.64-405.9,272.2h0Z"/>
      <path d="M515.03,2195.44c92.24-46.64,177.7-105.84,259.48-168.78,70.91-55.07,139.75-115.58,203.68-178.69,82.29-80.93,160.23-169.41,230.3-261.13,18.87-24.11,36.68-49.15,54.81-73.82,1.62-2.33,11.92-17.17,13.8-19.88,13.08-18.55,31.33-45.33,43.39-64.12,16.51-24.52,36.09-56.6,51.73-81.8,6.69-10.82,22.71-38.7,29.46-50.05,9.2-15.52,20.19-34.84,29.34-50.27,11.39-19.01,23.89-39.19,35.81-57.79,47.49-73.32,100.27-143.56,159.04-208.23,164.11-181.56,380.75-325.05,624.31-368.54,25.49-4.25,51.21-7.66,77.08-8.24-25.82.97-51.47,4.78-76.87,9.41-280.88,54.22-521.97,237.68-693.5,461.26-51.23,66.21-97.23,136.82-138.64,209.55-10.03,17.13-26.67,45.72-36.76,62.84-12.87,20.43-30.53,49.76-43.86,69.89-7.62,11.6-19.08,28.95-26.7,40.53-9.74,14.72-28.72,41.4-38.67,55.87-10.56,14.96-29.31,40.01-40.1,54.86-10.83,14.25-24.7,31.89-35.63,46.08-10.81,13.89-31.78,39.14-42.78,52.79-18.19,21.44-44.74,52.42-63.73,73.2-16.45,18.59-35.84,38.79-52.87,56.86-44.05,45.45-92.65,92.3-140.25,134.1-116.95,101.55-242.59,195.41-381.87,264.11h0Z"/>
      <path d="M612.45,2200.86c129.23-69.83,245.68-161.45,354.39-259.7,31.53-28.78,65.81-62.16,95.6-92.41,53.65-55.35,106.91-114.75,155.13-174.85,61.31-75.76,118.64-156.05,171-238.22,7.82-12.61,23.82-38.31,31.44-50.63,14.41-24.56,34.42-58.5,48.77-83.12,54.69-92.3,117.81-180.02,190.43-259.09,156.48-171.22,363.07-305.03,594.08-344.47,24.18-3.84,48.57-6.89,73.07-7.28-12.24.31-24.44,1.5-36.59,2.95-281.04,38.22-525.52,217.38-696.2,437.54-29.89,38.28-58.39,78.75-84.6,119.62-28.94,44.9-54.95,91.74-82.38,137.83-7.6,12.25-23.83,38.25-31.6,50.74-46,72.14-96.03,142.68-148.87,209.93-52.77,66.44-110.39,132.73-169.86,193.29,0,0-6.39,6.61-6.39,6.61,0,0-3.2,3.3-3.2,3.3,0,0-3.27,3.24-3.27,3.24-11.65,11.44-27.37,27.39-39.35,38.66-124.03,117.75-259.68,226.5-411.59,306.08h0Z"/>
      <path d="M709.88,2206.29c80.5-45.5,154.98-101.08,226.3-159.73,97.7-80.92,188.74-170.67,271.88-266.48,60.34-69.23,117.69-143.24,169.9-218.73,16.57-23.45,37.31-55.3,52.94-79.18,10.51-16.88,26.34-41.95,36.52-58.87,16.84-28.31,44.92-76.83,62.16-104.35,36.15-57.67,76.03-113.14,119.76-165.31,110.68-131.83,248.6-243.02,407.56-310.81,79.87-33.61,164.54-58.07,251.25-64.17,5.77-.34,11.55-.6,17.34-.59-23.11.58-46.1,3.65-68.88,7.46-182.43,31.92-350.03,126.25-485.64,250.6-85.11,77.88-158.48,168.13-221.13,264.87-25.79,39.33-56.02,93.08-80.43,133.63-45.14,73.44-94.32,146.74-146.65,215.19-62.53,82.45-131.64,162.65-204.45,236.17-22.58,23.11-51.07,50.52-74.82,72.48-102.36,93.44-211.9,180.79-333.59,247.8h0Z"/>
      <path d="M807.3,2211.71c74.55-44.92,143.48-98.7,209.59-155.15,90.55-77.85,175.09-163.42,252.58-254.26,39.16-45.45,78.27-95.4,114.01-143.61,9.91-13.91,25.93-35.69,35.6-49.7,13.29-19.21,32.94-47.81,45.59-67.57,5.08-7.81,12.93-19.52,17.73-27.36,35.43-55.09,70.38-119.56,106.72-173.99,46.69-70.41,99.88-136.88,159.54-196.74,137.97-138.58,315.9-243.34,510.88-272.87,21.55-3.03,43.28-5.36,65.06-5.38-21.76.39-43.42,3.09-64.89,6.49-237.41,39.53-445.32,187.63-592.79,373.76-57.75,70.89-106.22,152.19-152.34,231.09-7.83,12.5-22.47,35.93-30.36,48.5-14.73,22.45-34.45,52.68-50,74.73-12.34,18.26-29.72,41.99-42.66,59.93-3.79,5.29-10.91,14.5-14.73,19.6-38.69,51.51-81.31,103.77-124.06,151.87-27.84,31.4-59.9,65.64-89.44,95.36-107.75,107.34-224.72,207.86-356.02,285.3h0Z"/>
      <path d="M904.73,2217.13c102.49-66.99,194.73-148.66,281.61-234.62,50.16-50.06,98.94-103.51,144.44-157.9,31.97-37.96,65.09-80.07,94.58-120.09,10.34-13.64,25.71-35.41,35.84-49.55,2.26-3.11,6.63-9.34,8.77-12.52,17.68-25.43,38.4-56.64,55.21-82.61,7.38-11.79,21.04-33.65,28.37-45.37,5.01-8.36,33.6-56.25,39.24-65.68,23.54-39.28,49.54-77.96,77.03-114.6,27.52-36.57,57.66-72.25,89.39-105.26,133.66-140,310.05-245.22,503.44-272.42,20.24-2.63,40.63-4.61,61.06-4.45-20.41.21-40.74,2.55-60.9,5.53-202.32,31.5-384.34,147.27-519.64,298.21-47.57,52.93-90.37,110.41-128.25,170.64-10.88,17.03-36.56,60.69-47.32,78.64-10.37,17.55-25.58,41.22-36.39,58.6-16.88,26.01-37.72,57.3-55.48,82.77-13.54,19.33-30.67,43.33-44.87,62.14-29.72,39.98-63.11,82.07-95.33,120-72.45,85.68-151.37,166.66-235.69,240.66-61.69,53.44-125.66,104.8-195.11,147.87h0Z"/>
      <path d="M1002.15,2222.55c62.43-43.72,120.21-93.8,175.83-145.8,71.02-66.67,137.94-138.39,200.38-213.18,34.4-41.29,69.35-85.88,101.02-129.4,31.87-43.3,63.7-90.18,92.85-135.37,10.11-16.22,24.2-38.21,33.89-54.57,10.3-17.03,34.17-57.17,44.64-73.32,38.53-60.37,82.46-117.57,131.77-169.55,127.56-134.78,297.49-234.99,483.22-258.78,18.93-2.23,37.99-3.86,57.06-3.53-9.53-.05-19.05.56-28.54,1.35-66.37,6-131.51,23.25-193.31,47.86-137.19,54.44-257.02,147.52-351.67,260.08-33.68,39.9-64.61,82.27-92.66,126.33-14.21,22.23-38.04,62.78-51.85,85.51-8.7,13.72-21.73,34.81-30.58,48.4-15.74,24.31-35.39,53.45-51.82,77.27-25.26,36.03-53.76,74.62-80.83,109.33-126.92,160.42-270.76,310.52-439.41,427.37h0Z"/>
      <path d="M1099.58,2227.98c84.1-64.93,160.16-139.74,232.46-217.41,74.9-81.05,144.79-167.6,209.04-257.33,22.27-31.34,46.35-66.32,67.26-98.66,22.48-34.1,48.69-77.54,70.03-112.77,110.16-181.32,279.06-334.37,486.22-392.42,42.67-11.99,86.48-20.39,130.77-22.9,8.85-.45,17.71-.75,26.57-.44-17.71-.16-35.39,1.47-52.94,3.66-35.1,4.42-69.77,12.09-103.66,22.2-150.73,44.97-283.39,139.83-384.31,259.41-29.94,35.32-57.56,72.76-82.7,111.66-13.38,20.59-35.59,58.15-48.52,79.24-24.04,38.68-50.66,79.32-76.5,116.83-20.72,29.71-44.42,62.65-66.44,91.46-118.37,154.45-251.63,299.87-407.28,417.46h0Z"/>
      <path d="M1197,2233.4c74.67-63.78,142.63-135.07,207.63-208.55,64.61-73.56,125.74-151.05,182.43-230.89,23.1-32.42,47.31-67.95,68.99-101.39,12.83-19.64,27.08-42.16,39.32-62.2,8.92-14.51,29.82-48.9,38.99-62.62,111.08-171.53,284.79-309.51,488.92-346.17,32.22-5.77,64.99-9.63,97.76-8.54-32.72-.36-65.36,4.1-97.43,10.31-160.82,32.02-304.89,126.1-410.34,250.23-29.08,34.12-55.88,70.31-79.96,108.14-12.46,19.39-32.81,53.83-45.15,73.09-25.68,40.9-53.86,83.33-81.64,122.84-23.11,32.98-48.4,67.04-72.9,98.96-100.55,129.06-210.5,252.15-336.62,356.79h0Z"/>
      <path d="M1294.43,2238.82c32.36-30.9,63.89-64.12,94-97.26,42.28-46.51,84.75-96.74,124.13-145.91,39.05-48.93,78.75-102.01,115.19-153.01,14.46-21.13,37.05-52.9,50.99-74.32,11.45-17.53,25.97-38.9,37.07-56.52,20.08-31.6,45.49-74.07,66.64-104.74,103.61-152.89,263.14-271.12,447.78-300.72,29.69-4.75,59.84-7.73,89.93-6.3-30.04-.73-60.08,2.85-89.63,8.03-136.91,24.7-262.48,97.77-358,198-28.41,29.78-54.59,61.83-78.32,95.44-15.05,20.91-35.01,53.38-48.87,75.59-8.6,13.64-27.59,44.31-36.32,57.17-8.99,13.59-22.21,33.52-31.17,47.05-11.46,17.08-33.45,48.07-45.1,64.89-78.97,109.72-164.55,215.75-258,313.44-25.71,26.83-52.8,54.24-80.32,79.18h0Z"/>
      <path d="M1391.86,2244.24c105.1-117.03,200.73-243.54,290.61-372.57,8.89-13.14,28.44-41.89,37.53-55.25,13.46-20.65,28.93-43.74,42.18-64.49,18.45-28.77,41.75-67.38,61.4-95.15,15.78-22.43,32.97-44.29,51.17-64.8,93.12-106.02,221.91-181.41,362.43-200.85,20.39-2.88,40.95-4.64,61.55-4.73,6.86-.01,13.72.09,20.56.62-13.69-.66-27.41-.05-41.07.98-195.73,15.87-362.74,134.91-466.64,297.89-24.37,38.67-52.55,83.28-77.88,121.12-25.09,38.04-55.51,81.3-82.02,118.43-60.21,83.14-123.75,164.86-190.89,242.45-22.19,25.64-45.44,51.9-68.91,76.35h0Z"/>
      <path d="M1489.28,2249.66c97.34-128.08,189.71-260.8,278.45-395.01,19.63-29.87,41.34-63.25,60.61-93.62,9.39-14.6,20.78-32.62,30.75-46.71,17.88-25.29,37.66-49.87,59.04-72.3,68.31-72.43,156.34-126.75,252.76-152.17,47.99-12.4,97.95-19.49,147.51-15.85-6.18-.44-12.39-.51-18.58-.47-18.57.19-37.13,1.65-55.54,4.11-132.11,17.4-254.57,87.81-340.37,189.13-10.99,12.65-21.7,26.36-31.67,39.83-6.18,8.55-12.68,17.83-18.51,26.59-60.04,94.04-121.43,187.35-186.08,278.28-57.22,80.79-116.38,161.02-178.38,238.18h0Z"/>
      <path d="M1586.71,2255.09c93.1-150.87,189.16-301.12,285.6-449.79,10.39-16.03,21.48-33.08,32.99-48.26,81.61-111.06,207.63-185.26,345.64-196.12,22.15-1.79,44.48-2.27,66.58.08-5.53-.5-11.08-.7-16.62-.79-16.63-.23-33.27.63-49.8,2.34-133.73,13.66-255.12,84.67-335.95,191.51-6.65,8.56-13.3,17.91-19.45,26.81-89.95,137.77-219.34,337.61-308.98,474.22h0Z"/>
      <path d="M1684.13,2260.51c45.45-97.9,97.54-193.21,153.03-285.78,25.03-41.87,51.75-83.95,78.77-124.66,41.88-66.73,100.29-124.49,171.26-159.78,35.22-17.84,73.09-30.39,111.87-37.61,38.69-6.89,78.5-9.61,117.56-4.69-9.77-1.07-19.59-1.39-29.4-1.42-100.21-.11-200.67,35.31-276.51,101.15-24.02,20.68-45.7,44.15-64.76,69.46-8.49,11.17-17.27,24.42-25.01,36.22-15.76,23.6-33.03,50.2-48.06,74.11-67.85,108.04-131.47,218.99-188.74,333h0Z"/>
      <path d="M1781.56,2265.93c29.1-96.48,70.63-189.42,119.62-277.39,5.99-10.56,16.63-28.6,22.82-38.92,9.78-15.69,24.42-38.87,35.06-54.09,76.58-121.29,215.67-180.83,356.68-160.54-16.99-2.27-34.18-2.69-51.3-2.32-94.7,2.44-186.55,37.64-252.97,106.19-10.28,10.57-20.25,22.05-29.16,33.81-6.55,8.41-12.41,17.31-18.43,26.16-10.64,15.14-25.25,38.14-35.04,53.76-59.93,98.79-110.03,203.91-147.29,313.34h0Z"/>
      <path d="M1878.98,2271.35c10.85-84.19,35.49-166.74,71.98-243.37,16.86-34.88,36.89-68.69,60.12-99.73,60.97-82.5,159.52-117.88,259.87-111.84,14.74.86,29.47,2.47,43.9,5.56-14.52-2.5-29.25-3.57-43.96-4.05-98.94-2.84-195.36,32.33-255.28,113.72-7.19,9.82-15.45,21.35-21.98,31.61-23.92,36.92-43.86,76.6-60.43,117.33-24.82,61.37-43.39,125.41-54.21,190.77h0Z"/>
      <path d="M1976.41,2276.78c-6-103.42,14.94-240.34,90.52-316.56,63.63-63.47,163.44-72.04,247.04-51.25-36.43-7.63-74.22-9.24-111.17-4.93-50.32,5.74-100.14,26.02-135.27,63.3-21.08,22.48-37.25,49.31-49.76,77.4-6.69,15.33-12.76,31.88-17.5,47.91-17.39,59.6-24.66,122.07-23.85,184.12h0Z"/>
      <path d="M2073.83,2282.2c-17.93-70.37-30.81-179.99,9.1-244.08,42.38-65.09,132.02-66.36,200.24-50.56,10.1,2.3,20.12,5,29.9,8.4-56.93-15.11-126.72-21.95-180.87,5.18-23.12,11.78-41.08,29.54-52.04,53.16-29.58,64.19-19.66,159.77-6.33,227.9h0Z"/>
    </g>
    <g>
      <path d="M2175.96,107.55c-51.23,16.83-100.53,39.07-148.95,62.7-120.73,59.81-234.35,133.5-340.27,216.64-114.79,90.31-220.7,192.41-316.11,302.97-42.52,49.2-83.53,101.1-122.05,153.49-63.58,86.89-121.58,177.93-174.13,271.91-7.46,13.19-26.98,47.63-34.62,60.19-54.88,92.96-116.07,182.56-183.91,266.58-178.6,221.43-408.05,409.09-677.16,507.51-57.99,20.72-117.57,38.35-178.77,46.28,15.28-1.94,30.41-4.96,45.45-8.29,289.53-68.09,551.02-258.79,745.24-479.59,76.28-86.44,144.79-179.97,206.24-277.44,27.91-43.98,56.24-93.83,81.83-139.34,64.86-113.96,138.12-223.35,219.72-326.01,194.23-244.02,436.74-453.19,717.24-591.64,51.96-25.19,105.08-48.62,160.22-65.96h0Z"/>
      <path d="M2083.94,102.43c-55.8,19.28-109.28,44.77-161.58,72.01-267.38,141.62-497.72,348-682.29,586.72-69.87,90.34-133.25,185.74-190.24,284.68-26.63,46.99-55.36,97.73-84.43,143.16-75.14,118.63-161.66,230.42-260.35,330.43-160.74,162.43-355.59,295.95-574.76,364.83-42.32,12.97-85.44,24.09-129.45,29.39,14.65-1.8,29.16-4.62,43.58-7.73,256.83-59.03,490.85-218.38,671.13-407.16,50.9-53.11,98.5-109.78,142.83-168.47,66.52-87.91,125.59-182.39,179.05-278.8,65.88-115.56,140.67-226.19,224.11-329.81,143.82-178.17,313.89-336.11,506.42-460.45,62.1-40,126.41-76.63,193.12-108.38,40.02-18.94,80.75-36.66,122.87-50.42h0Z"/>
      <path d="M1991.92,97.31c-39.86,14.28-78.27,32.31-116.08,51.29-62.9,31.88-123.59,68.09-182.08,107.43-198.9,133.84-372.43,303.86-516.72,494.96-22.98,30.49-46.26,62.85-67.8,94.43-48.35,70.15-95.88,150.84-137.9,225.44-10.03,16.9-22.46,37.81-32.93,54.44-78.42,126.02-170.28,244.04-276.38,347.99-161.42,157.29-357.76,284.8-577.22,342.25-27.38,6.84-55.06,12.87-83.14,15.95,14.02-1.65,27.9-4.27,41.7-7.17,96.5-20.97,188.98-58.26,276.11-104.34,199.38-106.08,368.76-262.78,504.75-442.04,44.58-58.92,86.09-120.42,124.19-183.75,14.53-24.02,33.73-57.94,47.64-82.39,31.46-55.28,65.27-109.24,100.89-161.92,193.87-285.86,450.94-534.16,759.17-693.31,44.09-22.26,89.03-43.18,135.78-59.25h0Z"/>
      <path d="M1899.9,92.19c-44.08,16.69-86.33,37.85-127.84,60.07-242.1,132.61-450.67,321.93-620.04,538.95-66.15,84.83-126.26,174.33-180.51,267.21-7.42,12.85-43.62,76.21-50.67,87.43-5.87,10.01-14.96,24.58-21.16,34.51-160.1,256.3-384.2,481.84-664.77,602.14-68.15,28.96-139.14,52.39-212.36,64.24-6.66,1.02-13.33,1.96-20.04,2.58,13.38-1.5,26.64-3.93,39.83-6.62,197.65-43.07,377.39-148.99,528.74-281.09,80.72-71.03,153.74-150.7,219.05-236.06,42.73-56.07,82.49-114.64,119.01-174.96,3.18-5.34,12.17-20.4,15.5-25.98,65.36-117.03,138.62-232.75,221.63-337.9,170.37-217.1,380.64-405.99,624.93-536.07,41.76-21.85,84.35-42.42,128.7-58.47h0Z"/>
      <path d="M1807.88,87.06c-94.78,39.16-182.83,93.24-266.61,151.99-107,75.81-206.22,163.11-296.42,258.22-14.53,15.76-31.44,33.39-45.42,49.54-15.56,17.38-35.6,40.61-50.05,58.25-4.79,5.8-14.03,16.62-18.35,22.2-16.2,20.5-37.64,47.33-52.89,68.32-5.59,7.48-14.7,19.66-20.12,26.92-.92,1.31-23.32,33.1-24.88,35.32-30.91,43.81-60.91,91.02-88.83,136.89-27.25,46.16-54.67,95.47-83.35,140.71-68.48,108.63-148.16,210.57-239.78,300.68-150.7,147.93-335.82,266.36-542.11,317.55-24.96,5.88-50.17,11.03-75.71,13.51,25.48-2.86,50.59-8.38,75.43-14.63,204.93-53.51,388.35-172.94,537.87-321.02,88.7-87.78,165.8-186.85,232.95-291.92,28.77-45.08,56.21-94.32,83.39-140.46,2.79-4.79,6.9-11.93,9.86-16.55,23.06-37.57,48.43-76.95,73.16-113.24,8.78-12.43,27.23-38.56,36.11-51.14,11.69-15.61,25.83-34.49,37.55-50.09,11.09-13.95,30.77-38.99,42.03-52.71,19.28-23.13,42.49-50.59,62.8-73,11.92-13.72,26.77-29.21,39.15-42.5,92.55-97.77,194.97-186.95,305.51-263.87,84.57-57.86,173.2-111.26,268.73-148.97h0Z"/>
      <path d="M1715.86,81.94c-144.52,64.54-274.11,159.13-392.7,263.08-54.23,48.1-106.92,100.25-155.55,153.81-30.19,32.81-60.96,69.24-88.93,103.88-7.55,9.69-26.24,33.32-33.72,43.08-7.73,10.43-19.4,26.11-27.19,36.59-7.07,9.13-24.74,34.66-31.74,44.56-27.55,39.09-54.43,81.44-79.6,122.22-24.64,40.93-49.2,85.25-74.43,125.77-38.66,62.06-80.99,122.2-127.47,178.66-167.79,204.94-400.35,375.84-664.15,426.43-12,2.09-24.05,3.95-36.19,4.97,24.21-2.56,48.1-7.64,71.73-13.4,260.64-66.49,482.86-241.02,645.99-450.87,44.66-57.51,85.61-118.2,122.8-180.82,16.71-28.72,36.09-62.04,52.99-90.71,19.47-31.49,41.02-65.73,61.71-96.23,12.53-19.17,31.23-44.9,44.41-63.81,11.03-14.89,24.45-32.8,35.54-47.66,7.65-9.89,26.29-33.29,33.98-43.09,13.04-16.18,27.63-33.29,40.91-49.25,6.93-7.83,29.11-33.21,36.24-41.2,11.28-12.11,25.91-28.19,37.32-40.23,43.66-45.63,91.12-91.08,138.8-132.63,117.92-100.5,246.24-192.05,389.25-253.16h0Z"/>
      <path d="M1623.84,76.82c-125.12,59.08-237.81,142.05-342.03,232.4-40.7,35.49-81.19,74.35-118.85,113.09-19.77,20.5-45.55,48.54-64.52,69.72-6.72,7.77-26.76,31.02-33.85,39.23-7.68,9.34-25.55,31.15-32.86,40.06-12.29,15.69-30.44,38.6-42.26,54.64-9.55,13.07-21.42,28.63-30.69,41.74-6.74,9.62-23.26,33.2-29.73,42.43-6.37,9.46-22.07,33.32-28.63,43.18-10.83,16.31-26.22,41.69-36.82,58.45-27.69,46.22-59.69,103.4-89.47,148.15-25.14,38.47-52.45,76.52-80.9,112.6-142.59,180.79-331.87,330.82-553.1,401.07-44.02,13.69-89.11,25-135.1,29.23,11.48-1.06,22.88-2.92,34.22-4.98,261.4-52.39,486.23-223,648.57-429.59,60.3-75.58,112.54-161.51,160.73-245.37,5.6-9.94,21-34.21,27.26-44.25,5.33-8.47,13.04-21.05,18.61-29.22,6.65-9.96,22.26-33.63,28.77-43.28,6.48-9.23,23.22-33.06,29.88-42.53,5.89-8.45,14.4-19.55,20.53-27.91,5.88-7.82,14.72-20.07,20.8-27.71,26.95-34.85,58.77-74.02,87.97-107.07,14.54-16.9,31.4-35.02,46.44-51.42,6.49-6.65,29.18-30.6,36.07-37.41,8.56-8.45,22.08-22.01,30.73-30.51,18.06-17.38,44.77-42.21,63.47-58.91,110.56-96.51,230.64-185,364.77-245.84h0Z"/>
      <path d="M1531.82,71.7c-136.01,68.89-256.4,165.47-366.59,270.04-5.57,5.5-24.38,23.91-29.1,28.57-10.46,10.83-23.77,24.18-34.08,35.11-18.5,19.53-42.61,46.2-60.37,66.34-6.24,7.32-25.11,29.51-31.71,37.26-19.24,23.4-42.45,52.59-60.76,76.69-9.06,11.86-20.09,27.28-29.07,39.35-6.34,8.34-21.9,31-28.22,39.96-4.75,6.65-13.91,20.11-18.35,26.96-10.49,15.79-25.77,38.76-35.48,54.73-19.56,30.62-40.39,66.64-58.83,97.9-16.48,28.14-34.24,55.94-52.4,83.05-21.28,31.27-44.21,62.81-67.86,92.32-108.73,136.24-245.09,252.62-403.4,327.06-78.94,36.41-162.83,65.31-249.74,73.63,10.85-.92,21.62-2.58,32.34-4.44,318.94-61.77,575.21-301.48,734.96-575.21,18.41-31.35,39.33-67.42,58.97-98.07,9.72-15.94,25.2-39.15,35.66-54.86,4.41-6.79,13.71-20.43,18.44-27.02,6.23-8.82,21.92-31.59,28.35-40.05,8.98-12.05,20.1-27.52,29.26-39.4,18.39-24.02,41.92-53.38,61.24-76.69,11.64-13.48,30.84-36.3,42.88-49.41,14.29-16.21,37.84-41.36,52.77-57.02,34.73-35.61,71.84-71.81,109.2-104.64,98.12-85.99,204.08-165.22,321.89-222.16h0Z"/>
      <path d="M1439.8,66.58c-117.08,63.48-221.43,148.48-317.78,239.86-21.15,20.23-44.86,43.94-64.97,65.26-77.28,81.12-148.64,169.95-212.11,262.25-11.75,16.62-27.03,40.39-38.38,57.41-7.35,11.76-21.05,33.55-28.53,45.51-19.33,32.14-39.42,67.1-59.3,98.9-17.67,27.86-36.78,56.22-56.33,82.78-144.45,197.77-351.91,359.93-594.86,411.24-20.1,3.99-40.38,7.38-60.85,8.71,20.42-1.69,40.62-5.42,60.63-9.75,274.67-62.23,499.22-262.13,645.58-496.65,19.82-31.79,39.81-66.79,59.2-98.86,7.58-12.08,21.23-33.75,28.68-45.61,2.81-4.24,18.13-27.36,21.26-32.08,62.42-93.39,133.18-183.18,209.88-265.29,11.56-12.65,25.37-26.55,37.24-38.92,7.42-7.42,20.54-20.39,27.29-27.12,103.24-99.24,215.96-191.18,343.35-257.64h0Z"/>
      <path d="M1347.78,61.46c-66.56,38.37-127.9,85.28-186.59,134.66-51.08,43.28-100.07,89.95-146.37,138.36-45.73,47.99-90.79,100.11-131.71,152.33-69.97,88.32-131.66,183.29-188.45,280.51-13.72,22.46-28.29,44.98-43.22,66.65-41.1,59.32-87.26,115.46-138.62,166.2-122.66,121.58-277.66,214.88-448.17,248.63-18.89,3.52-37.94,6.48-57.13,7.54,19.16-1.4,38.13-4.7,56.93-8.55,275.25-59.1,497.28-263.93,635.43-502.52,18.68-31.58,40.5-67.63,60.53-98.28,16.02-24.56,35.84-53.63,52.73-77.57,7.78-10.69,17.69-24.32,25.49-34.99,29.55-39.52,62.42-80.92,94.7-118.23,24.15-28.14,52.05-58.66,77.79-85.26,46.7-48.24,96.26-94.51,147.92-137.37,59.46-48.63,121.36-94.97,188.73-132.11h0Z"/>
      <path d="M1255.76,56.34c-90.74,57.77-172.12,129.33-248.4,204.86-50.39,50.24-98.98,104.34-143.85,159.59-76.53,93.48-144.3,194.41-205.52,298.46-39.62,65.29-85.23,127.23-137.15,183.29-121.52,131.55-281.5,232.56-459.05,265.26-17.68,3.06-35.49,5.59-53.42,6.37,8.96-.5,17.86-1.6,26.74-2.84,119.66-18.25,232.67-70.03,331.03-139.64,116.77-83.08,212.29-193.58,286.17-315.88,17.49-29.28,37.8-63.15,56.27-91.82,16.1-25.22,35.42-53.71,52.56-78.28,46.15-65.61,96.96-130.14,150.33-190.07,26.42-29.82,55.02-59.98,83.2-88.12,79.89-78.47,165.31-152.68,261.09-211.18h0Z"/>
      <path d="M1163.74,51.21c-85.23,59.77-161.47,131.62-233.28,206.73-53.98,57.06-105.71,118.27-153.22,180.86-58.11,75.94-110.61,156.4-159.58,238.48-6.25,10.18-13.6,21.77-20.23,31.69-27.57,41.75-58.16,81.91-91.61,119.13-116.35,130.36-273.18,229.4-446.91,258.69-16.46,2.59-33.04,4.71-49.71,5.21,8.32-.37,16.61-1.28,24.87-2.32,179.88-25.6,342.74-127.32,463.09-260.96,41.58-46.29,78.89-96.67,111.72-149.52,15.31-25.08,33.11-55.14,49.05-79.9,21.87-34.59,46.06-70.51,69.89-103.78,28.59-40.13,60.05-81.07,91.36-119.13,36.88-44.81,76.28-88.99,116.84-130.43,70.12-71.16,144.65-138.93,227.72-194.74h0Z"/>
      <path d="M1071.72,46.09c-90.74,71.3-171.16,155.1-246.52,242.25-29.53,34.48-59.29,71.61-86.86,107.73-55.76,73.37-107.29,150.37-154.87,229.25-9.85,16.26-20.71,32.9-31.45,48.62-37.24,54.02-80,104.44-128.28,148.91-107.4,98.98-244.39,170.11-390.64,185.66-7.67.69-15.36,1.26-23.06,1.33,7.7-.23,15.36-.97,23.01-1.81,53.44-6.37,105.78-20.92,155.66-40.93,150.35-59.85,275.58-172.36,364.56-306.27,12.4-18.23,25.22-39.62,36.81-58.52,15.3-25.16,33.41-53.51,49.71-77.99,20.89-31.6,43.74-64.24,66.25-94.73,26.86-36.53,56.46-74.36,85.56-109.17,84.22-100.01,175.63-195.29,280.12-274.32h0Z"/>
      <path d="M979.7,40.97c-68.5,61.04-130.98,129.01-190.17,199-12.73,14.66-34.64,42.07-47.06,57.29-9.35,11.96-23.07,29.76-32.48,41.83-11.95,15.34-32.5,43.74-44.26,59.47-12.33,17.55-27.22,38.81-39.57,56.33-9.34,13.99-28.97,43.53-38.16,57.29-17.7,27.52-38.85,62.25-56.53,89.68-11.4,17.62-24.01,35.48-36.68,52.23-81.04,107.42-190.87,194.67-318.06,240.37-40,14.33-81.39,24.88-123.54,30.26-14.04,1.69-28.16,2.98-42.3,2.96,7.07-.11,14.12-.66,21.15-1.32,91.3-9.57,179.26-42.91,257.24-90.76,80.98-49.97,150.7-117.13,206.98-193.66,14.56-19.72,28.47-40.45,41.32-61.31,17.39-27.52,38.82-62.61,57.07-89.45,1.82-2.74,25.32-37.87,26.54-39.71,10.07-14.25,23.61-33.35,33.74-47.63,11.36-16.1,32.5-43.72,44.28-59.65,12.08-15.47,27.19-34.65,39.39-50.03,5.59-6.77,28.03-33.9,33.81-40.9,31.87-37.51,65.31-74.83,99.48-110.28,34.39-35.12,70.1-70.48,107.82-102.02h0Z"/>
      <path d="M887.68,35.85c-62.58,64.49-120.54,134.5-176.01,205.19-30.55,39.43-63.19,83.4-91.98,124.13-6.29,8.63-15.89,22.8-22.04,31.71-6.39,9.31-15.68,22.62-21.85,31.84-9.89,14.99-27.69,41.58-37.21,56.42-9.39,14.81-26.83,42.4-36.2,57.1-99.63,160.66-261.26,280.61-452.06,301.39-12.83,1.25-25.72,2.13-38.61,1.87,25.75-.3,51.38-4.02,76.6-9,123.02-24.96,235.83-91.65,321.16-183.14,26.34-28.02,50.37-58.36,72.01-90.15,14.39-21.46,32.72-51.19,46.86-73.18,13.92-21.92,33.41-50.96,48.01-72.61,12.21-17.48,26.32-38.22,38.81-55.48,44.56-62.27,92.73-124.97,142.05-183.49,41.43-49.18,84.51-97.62,130.48-142.61h0Z"/>
      <path d="M795.66,30.73c-42.17,51.76-82.62,105.61-122.28,159.33-59.8,81.77-118.19,166.65-173.53,251.49-16.58,25.38-35.21,55.76-52.39,80.65-8.31,11.79-17.3,23.83-26.3,35.1-69.25,86.84-163.85,154.05-270.67,185.72-44.69,13.06-91.27,21.55-137.94,20.32,23.28.23,46.51-2.55,69.43-6.42,114.57-20,220.91-79.39,300.38-163.94,21.93-23.12,42.04-48.02,60.27-74.15,108.66-168.92,222.73-334.99,353.03-488.11h0Z"/>
      <path d="M703.64,25.61l-273.02,419.33s-4.27,6.55-4.27,6.55c0,0-2.14,3.27-2.14,3.27-1.28,1.82-9.59,14.06-11.1,16.21,0,0-4.44,6.48-4.44,6.48l-4.74,6.27c-3.47,4.54-10.8,14.52-14.41,18.65-2.53,3.02-7.54,9.07-10.06,12.08-76.29,89.95-186.26,150.48-303.59,164.34-20.72,2.36-41.65,3.75-62.49,2.39,62.42,1.14,124.68-13.46,182.08-37.42,66.89-28.2,126.76-72.68,174.63-127.1,3.1-3.23,7.11-8.44,10.05-11.87,2.81-3.48,7.2-8.47,9.83-12.05,0,0,9.36-12.43,9.36-12.43,0,0,4.68-6.21,4.68-6.21l4.38-6.43c4.97-7.25,12.67-18.53,17.35-25.91,90.88-139.41,183.46-279.05,277.9-416.15h0Z"/>
      <path d="M611.62,20.49c-66.75,136.85-144.58,268.31-229.32,394.76-2.74,3.87-9.46,13.3-12.1,17.02-4.99,6.32-12.07,15.69-17.39,21.74-3.32,3.78-8.14,9.35-11.44,13.12-3.22,3.36-11.26,11.69-14.49,15.04-1.73,1.74-5.8,5.43-7.61,7.16-2.9,2.67-7.24,6.92-10.27,9.4-3.56,2.94-12.38,10.7-16.05,13.36-2.73,2.08-8.3,6.4-11.04,8.49-5.59,4.09-11.43,8.02-17.11,11.97-1.33.79-13.38,8.47-14.72,9.27-4.41,2.59-10.69,6.04-15.12,8.6-9.59,5.15-21.27,10.78-31.25,15.24-59.37,25.3-124.96,38.43-189.49,33.37,36.78,2.02,73.81-2.44,109.61-10.75,55.82-12.93,109.19-37.42,155.09-71.74,3.94-3.1,9.63-7.5,13.55-10.58,3.58-2.99,12.1-10.39,15.64-13.44,4.58-4.38,10.39-9.82,14.94-14.21,3.18-3.31,11.1-11.57,14.27-14.89,3.24-3.72,8.01-9.24,11.27-12.98,5.24-5.99,12.2-15.27,17.12-21.52,4.47-6.43,11.5-16.01,15.78-22.56,7.03-10.71,19.83-29.64,26.73-40.34,72.75-111.94,141.42-227.28,203.4-345.52h0Z"/>
      <path d="M519.6,15.36c-17.68,57.5-41.22,114.07-66.99,168.41-3.89,7.94-9.47,19.27-13.33,27.15-1.48,2.97-12.17,23.31-13.99,26.83-6.26,11.82-13.97,25.38-20.47,37.09-4.1,6.95-14.39,24.3-18.51,31.25-5.93,9.38-13.5,21.31-19.44,30.69-2,3.2-14.53,21.55-16.93,25.1-8.74,13.14-19.11,26.8-29.36,38.72-2.14,2.68-5.83,6.48-8.17,9.03-1.31,1.38-4.93,5.33-6.21,6.69-2.93,2.91-10.16,9.84-13.11,12.72-3.3,2.91-8.17,7.09-11.49,9.98-4.37,3.7-12.14,9.72-16.76,13.14-3.59,2.55-8.85,6.2-12.46,8.74-2.51,1.58-7.76,4.91-10.29,6.5-3.83,2.59-11.82,6.82-15.79,9.15-3.29,1.84-7.53,3.81-10.83,5.53,0,0-2.71,1.37-2.71,1.37,0,0-1.36.68-1.36.68,0,0-1.39.63-1.39.63-5.04,2.22-11.54,5.34-16.71,7.3-10.4,4.35-23.54,8.86-34.38,12.06-46.5,13.28-95.77,18.61-143.86,12.72,8.01.86,16.07,1.16,24.11,1.25,74.08.64,148.88-19.76,210.47-61.27,3.57-2.53,8.67-6.18,12.2-8.71,1.47-.99,10.18-7.99,11.79-9.25,4.34-3.35,9.42-8.16,13.61-11.75,1.16-.97,3.34-3,4.39-4.07,3.06-3.03,10.02-9.57,12.76-12.67,2.03-2.21,6.11-6.6,8.13-8.81,1.05-1.08,3.02-3.33,3.95-4.51,7.54-8.76,15.3-18.94,22.12-28.36,5.29-7.78,16.66-24.5,22.06-32.38,6.57-10.27,14.51-22.75,21.07-33.04,4.15-6.94,14.42-24.11,18.59-31.03,47.11-81.84,88.08-167.69,119.27-256.89h0Z"/>
      <path d="M427.58,10.24c-13.98,104.31-51.75,213.09-110.94,300.44-11.66,17.21-24.59,34.17-39.47,48.77-57.29,57.85-139.75,82.68-219.91,79.52-13.87-.49-27.74-1.73-41.36-4.3,6.85,1.05,13.75,1.67,20.66,2.11,20.69,1.37,41.52.91,62.11-1.37,62.52-6.56,122.22-30.16,168.41-73.34,3.01-2.96,7.03-6.98,10.05-9.96,2.44-2.51,7.91-8.79,10.35-11.45,75.29-93.86,118.97-212.79,140.1-330.44h0Z"/>
      <path d="M335.55,5.12c5.56,95.41-13.51,218.56-80.06,291.15-.49.54-1.76,1.97-2.23,2.49-.53.54-3.39,3.31-3.98,3.9-1.81,1.73-4.54,4.56-6.47,6.13-1.21.98-7.31,6.38-8.51,7.19-2.77,2.03-6.13,4.69-8.92,6.67-3.43,2.18-7.71,5.21-11.25,7.2-58.68,34.59-132.23,37.84-197.4,22.67,22.94,4.58,46.46,6.35,69.82,5.96,47.77-.8,96.56-12.06,135.95-39.93,3.32-2.48,7.13-5.27,10.35-7.88,2.29-2.03,7.7-6.49,9.75-8.61,1.9-1.9,5.05-4.96,6.95-6.84,1.47-1.65,6.38-7.17,7.93-8.91,1.83-2.24,3.59-4.55,5.39-6.82,56.11-72.38,73.83-184.52,72.69-274.36h0Z"/>
      <path d="M243.53,0c17.85,69.91,32.73,192.43-22.64,248.1-45.82,44.54-116.64,43.27-175.09,30.19-9.54-2.17-19-4.73-28.24-7.93,46.31,12.32,97.2,17.89,143.99,5.45,45.88-12.75,74.11-41.6,85.76-87.66,14.94-60.5,7.85-127.49-3.78-188.15h0Z"/>
    </g>
  </g>
</svg>