<?xml version="1.0" encoding="UTF-8"?>
<svg id="Layer_2" xmlns="http://www.w3.org/2000/svg" viewBox="0 0 1948.87 1919.98">
  <g id="Layer_1-2" data-name="Layer_1">
    <g>
      <path d="M468.79,1919.98c118.73-41.53,227.12-108.98,326.56-185.19,115.8-89.81,217.44-197.43,304.23-315.31,10.8-15.44,25.94-35.92,36.08-51.38,3.46-5.23,18.68-28.1,21.71-32.69,7.72-11.75,21.43-34.47,29.07-46.62,20.89-34.69,42.26-74.08,63.17-108.75,61.06-100.99,133.08-195.91,217.38-278.69,126.01-123.57,291.1-230.16,466.32-263.5,5.17-.88,10.35-1.7,15.56-2.27-5.2.64-10.37,1.52-15.52,2.47-36.02,6.87-71.22,17.63-105.56,30.42-191.66,72.41-352.95,210.29-476.49,371.7-41.39,53.92-78.89,110.91-112.97,169.72-12.74,22.62-30.1,52.67-43.04,75.04-2.9,4.82-17.55,28.29-20.74,33.46-9.28,15.47-24.35,37.57-34.41,52.75-10.17,15.47-25.51,36.2-36.25,51.5-10.81,14.37-22.37,29.6-33.35,43.88-9.19,11.16-25.46,31.75-34.86,42.68-8.29,9.59-19.98,23.18-28.3,32.78-5.28,5.74-24,26.21-29.25,31.92-8.01,8.62-19.25,19.86-27.36,28.3-9.14,9.62-24.54,24.07-33.72,33.07-1.89,1.82-3.76,3.66-5.67,5.46,0,0-5.81,5.31-5.81,5.31-7.92,7.13-20.93,19.39-29.13,26.46-6.64,5.75-17.17,14.85-23.81,20.6-10.27,8.84-21.34,17.51-30.37,25.03-106.6,84.29-224.12,158.3-353.49,201.83h0Z"/>
      <path d="M426.17,1850.57c123.05-41.37,235.04-111.22,337.08-190.57,7.33-5.53,28.54-23.26,36.19-29.46,14.09-12.21,33.31-28.73,46.57-41.26,3.23-2.99,11.66-10.7,14.32-13.15,4.98-4.79,25.18-24.52,30.65-29.83,7.81-8.05,25.14-25.82,32.51-33.46,6.22-6.77,24.92-27.26,31.48-34.43,11.96-14.02,29.03-33.26,40.24-47.43,1.97-2.44,20.65-25.52,22-27.21,4.05-5.34,12.27-16.17,16.45-21.68,14.61-18.69,31.88-43.52,45.68-62.91,13.18-19.9,30.15-44.76,42.42-65.16,21.58-33.97,42.86-72.63,62.99-107.4,35.38-60.61,74.51-119.15,117.76-174.44,123.08-156.97,282.28-290.69,470.29-361.63,38.93-14.39,78.91-26.75,120.06-32.75-41,6.57-80.8,19.4-119.54,34.11-186.68,72.66-344.48,206.57-466.76,363.43-42.91,55.25-81.93,113.56-117.11,174.02-20.08,34.83-41.42,73.57-63.08,107.54-12.31,20.44-29.39,45.39-42.62,65.32-13.86,19.43-31.2,44.31-45.89,63.07-3.95,5.18-12.56,16.47-16.56,21.7-12.26,14.93-29.46,36.71-42.24,51.1-14.33,17.03-36.97,41.73-52.12,58.02-10.33,10.55-22.33,22.95-32.74,33.44-5.66,5.34-27.64,26.8-33.81,32.35-7.94,7.15-20.82,18.99-28.89,26.19-8.6,7.4-21.89,18.75-29.6,25.38,0,0-24.22,19.65-24.22,19.65,0,0-6.06,4.91-6.06,4.91-104.34,80.92-219.15,151.93-345.45,192.53h0Z"/>
      <path d="M383.55,1781.16c117.54-37.74,225.02-102.63,323.03-176.82,3.46-2.65,12.44-9.56,15.28-11.73,5.01-4.05,15.72-12.78,20.93-17,3.67-3,8.44-6.78,11.89-9.8,14.01-11.94,33.07-28.44,46.23-40.75,5.81-5.15,16.97-15.64,22.47-21.09,6.67-6.55,15.71-15,22.08-21.49,101.72-101.71,188.37-218,259.67-342.84,10.4-17.73,20.32-35.82,30.79-53.52,7.21-12.41,16.46-27.45,23.99-39.68,143.55-229.58,353.6-431.7,616.83-512.42,19.76-5.72,39.74-10.88,60.09-13.99-5.08.79-10.13,1.81-15.15,2.9-5.03,1.08-10.03,2.28-15.01,3.54-275.12,75.25-493.96,285.77-642.23,522.8-7.55,12.27-16.66,27.12-23.87,39.57-10.46,17.72-20.3,35.74-30.71,53.5-72.23,126.31-160.32,243.78-263.92,346.09-9.31,8.91-21.42,20.45-30.73,29.35-10.48,9.31-23.88,21.78-34.54,30.92-5.93,5.01-28.95,24.79-35.53,29.77,0,0-12.05,9.67-12.05,9.67,0,0-6.03,4.84-6.03,4.84l-3.01,2.42c-8.95,6.81-8.18,6.18-15.39,11.67-98.56,73.79-206.88,137.85-325.1,174.1h0Z"/>
      <path d="M340.93,1711.75c78.14-23.22,151.43-60.84,220.75-103.27,134.23-83.02,251.8-191.7,350.07-314.91,63.8-79.28,118.39-165.78,167.54-254.79,12.69-21.72,26.31-44.2,39.93-65.31,44.09-68.65,93.77-134,148.93-194.17,110.16-120.04,243.84-221.07,395.66-281.91,37.92-14.89,76.82-27.97,116.99-35.14-10.03,1.78-19.94,4.21-29.78,6.83-9.84,2.64-19.61,5.54-29.3,8.66-189.12,62.32-352.15,188.73-480.31,339.12-52.71,61.99-99.92,128.67-141.95,198.33-4.57,7.52-10.97,18.59-15.53,26.28-27.27,48.67-55.71,97.86-86.84,144.13-34.03,50.83-70.92,100.01-110.67,146.53-119.1,139.4-264.66,258.39-431.2,336.37-37.01,17.05-74.9,32.61-114.29,43.26h0Z"/>
      <path d="M298.32,1642.34c38.98-10.51,76.49-25.95,113.12-42.79,164.57-77.17,307.85-195.35,424.94-333.58,73.48-86.45,135.72-181.99,190.35-281.31,8.47-14.57,18.41-31.17,27.3-45.52,148-237.91,367.35-448.3,641.26-527.86,9.76-2.59,19.57-5.02,29.51-6.81-19.8,3.97-39.17,9.82-58.31,16.17-249.32,86.25-450.36,277.16-591.85,495.72-10.63,16.66-21.77,34.36-31.83,51.41-4.49,7.65-10.97,18.5-15.21,26.13-53.65,97.32-115.28,190.64-187.51,275.22-117.81,138.2-262.31,256.07-428.06,331.72-36.82,16.53-74.54,31.53-113.71,41.51h0Z"/>
      <path d="M255.7,1572.93c38.77-9.81,76.1-24.69,112.55-40.99,218.67-100.15,397.8-273.42,528.99-473.01,21.95-33.36,42.66-67.54,62.15-102.39,43.7-78.77,93.53-154.35,150.14-224.5,94.2-116.83,207.8-219.07,337.94-294.34,52.04-29.92,106.62-55.67,163.52-74.93,18.98-6.29,38.18-12.1,57.78-16.09-19.54,4.25-38.64,10.31-57.53,16.84-136.63,48.54-259.85,130.63-365.74,228.89-91.3,85.13-169.82,183.49-235.93,289.25-10.54,16.96-20.81,34.08-30.79,51.38-43.56,78.77-91.6,155.54-147.2,226.4-135.04,172.87-311.12,319.66-518.47,396.1-18.85,6.67-37.91,12.89-57.41,17.37h0Z"/>
      <path d="M213.08,1503.52c38.55-9.11,75.71-23.42,111.98-39.17,108.57-48.19,207.81-116.11,295.56-195.91,117.08-106.65,213.41-234.73,290.15-372.97,21.69-38.96,45.15-77.09,69.87-114.21,16.52-24.44,34-49.2,51.9-72.64,32.85-43.24,68.67-85.2,106.39-124.29,123.93-127.42,274.39-234.23,445.08-287.87,9.5-2.81,19.05-5.48,28.74-7.56-28.9,6.9-56.9,17.13-84.46,28.14-266.75,110.5-474.4,331.77-612.95,580.97-48.25,86.59-103.99,169.33-168.06,245.06-102.24,121.08-226.17,225.39-367.81,297.34-53.12,26.47-108.38,49.88-166.4,63.1h0Z"/>
      <path d="M170.47,1434.11c28.78-6.16,56.7-15.78,84.17-26.22,176.03-69.1,327.37-191.7,447.37-336.45,42.07-50.97,80.55-104.94,115.54-161,12.64-20.49,25.58-42.19,37.35-63.25,58.47-105.05,127.52-204.79,208.77-293.57,117.68-127.98,260.52-236.1,423.06-299.92,22.9-8.76,46.15-16.82,70-22.58-33.12,8.58-65.42,21.22-96.76,34.85-179.52,79.56-332.98,210.66-454.73,363.48-54.5,69.32-103,143.2-145.82,220.27-4.18,7.37-10.36,18.35-14.69,25.55-12.31,21.06-25.45,42.26-38.7,62.71-53.54,82.28-115.17,159.72-184.96,228.84-111.65,110.02-244.58,201.56-393.82,251.86-18.66,6.06-37.52,11.64-56.79,15.42h0Z"/>
      <path d="M127.85,1364.7c19.08-3.65,37.77-9.15,56.23-15.15,240.56-81.48,434.22-265.63,569.93-476.18,21.16-32.6,40.41-66.21,59.62-100,43.3-76.06,92.24-149.15,147.78-216.85,3.98-4.82,12.22-14.9,16.21-19.75,4.95-5.67,21.56-24.64,26.44-30.21,8.92-10.07,20.64-22.23,29.76-32.13,4.88-5.32,20.68-20.92,25.62-25.99,11.75-11.86,24.82-23.79,36.96-35.26,6.27-5.61,21.33-18.96,27.26-24.25,0,0,22.36-18.77,22.36-18.77,0,0,5.59-4.69,5.59-4.69,8.5-6.91,20.08-15.85,28.6-22.65,96.59-73.03,203.45-136.17,320.52-169.47-111.72,33.39-214.04,93.69-306.88,163.33-12.91,9.57-27.44,21.44-39.99,31.55,0,0-5.55,4.71-5.55,4.71,0,0-22.18,18.85-22.18,18.85-8.22,7.54-24.74,22.01-32.32,29.34-18.27,17.23-39.39,38.08-56.79,56.37-7.04,7.58-17.64,19.05-24.72,26.68-7.64,8.48-23.38,26.83-31.09,35.63-61.41,73.5-115.97,152.72-163.1,236.1-37.99,67.8-79.49,134.1-127.07,195.67-94.55,123.46-211.12,231.44-346.84,308.19-67.85,37.59-139.97,69.74-216.35,84.94h0Z"/>
      <path d="M85.23,1295.28c75.55-14.77,147.03-46.4,213.97-83.75,155.12-87.62,283.4-217.36,383.18-363.97,24.24-35.5,47.21-72.72,68.3-110.2,51.68-92.47,110.72-181.19,179.83-261.62,112.55-131.49,249.83-243.98,406.58-318.51,34.84-16.33,70.51-31.26,107.6-41.66-36.91,10.92-72.36,26.26-107.02,42.88-155.59,75.97-291.75,188.77-403.63,320.31-68.66,80.42-127.4,168.87-178.95,261.1-21.2,37.58-44.28,74.9-68.64,110.49-100.22,147.03-229.88,276.49-386.04,363.36-67.46,36.73-139.28,67.86-215.18,81.59h0Z"/>
      <path d="M42.62,1225.87c37.61-6.15,74.1-18.02,109.63-31.59,225.25-88.49,401.98-270.31,524.92-475,17.47-29.36,36.32-63.22,53.62-92.82,6.95-11.18,19.61-31.56,26.45-42.56,10.71-16.09,24.78-37.81,36.02-53.4,5.47-7.55,19.48-27.62,25.12-34.83,6.19-8.11,15.51-20.36,21.71-28.46,3.86-5.2,18.44-22.76,22.49-27.84,10.16-12.81,26.47-31.1,37.17-43.55,9.37-10.34,19.62-21.3,29.08-31.61,7.9-8.25,22.19-22.66,30.02-30.71,5.15-4.85,25.42-24.6,31.04-29.68,7.27-6.57,19.17-17.39,26.52-24.03,7.96-6.84,20.05-17.15,27.19-23.27,43.9-36.27,90.6-70.64,138.95-100.7,64.92-39.78,133.19-75.49,206.13-98.02-108.51,36.1-207.66,96.71-298.3,165.66-20.74,15.78-46.38,37.14-66.07,54.48-10.87,9.41-23.65,21.5-34.31,31.21-4.6,4.49-23.09,22.43-28.14,27.36-7.65,7.94-22.64,23.17-29.82,30.72-81.35,86.64-152.08,183.51-211.18,286.56-12.45,21.42-26.71,46.96-39.42,68.08-36.92,61.16-78.35,120.16-124.31,174.89-96.55,114.83-214.94,213.43-351.62,276.66-51.96,23.62-106.29,43.65-162.87,52.49h0Z"/>
      <path d="M0,1156.46c18.71-2.5,37.1-6.98,55.27-12,36.32-10.17,71.69-23.63,105.92-39.43,132.87-61.34,247.71-157.2,341.53-268.75,45.39-54.12,86.18-112.13,122.68-172.59,17.4-29.1,35.98-62.62,53.12-91.91,6.75-11.02,19.4-31.24,26.15-42.17,12.11-18.42,26.79-40.91,39.69-58.72,12.5-18.03,28.85-39.68,42.15-56.99,14.61-18.53,29.46-37,44.98-54.78,4.72-5.39,13.63-15.99,18.61-21.39,0,0,19.16-20.9,19.16-20.9,0,0,4.79-5.23,4.79-5.23l2.4-2.61c10.03-10.18,22-22.93,32.22-32.93,0,0,20.37-19.72,20.37-19.72l5.1-4.92c7.7-7.07,18.47-16.88,26.15-23.92,7.27-6.54,14.32-12.41,21.39-18.6,75.24-64.44,157.89-120.98,246.53-165.33,33.84-16.7,68.43-32.21,104.46-43.57-17.95,5.84-35.46,12.95-52.75,20.49-198.18,88.76-367.16,235.72-498.17,407.61-16.53,21.55-34.35,46.29-49.53,68.81-9.09,13.74-22.49,33.45-30.84,47.38-24.79,38.84-48.09,82.49-71.77,121.94-36.68,60.63-77.68,118.81-123.44,172.95-94.47,111.57-210.36,207.25-344.19,267.56-34.46,15.49-70.01,28.63-106.5,38.45C37.21,1149.97,18.75,1154.21,0,1156.46H0Z"/>
    </g>
  </g>
</svg>