<?xml version="1.0" encoding="UTF-8"?>
<svg xmlns="http://www.w3.org/2000/svg" version="1.1" viewBox="0 0 80 79.9">
  <defs>
    <style>
      .cls-1 {
        fill: #f0ede7;
      }
    </style>
  </defs>
  <!-- Generator: Adobe Illustrator 28.6.0, SVG Export Plug-In . SVG Version: 1.2.0 Build 709)  -->
  <g>
    <g id="Layer_2">
      <g>
        <path class="cls-1" d="M41.9,76.5v-3.7l-3.9,3.7s3.9,0,3.9,0Z"/>
        <path class="cls-1" d="M38,75.7l4-3.8v-3.4l-4,3.8s0,3.4,0,3.4Z"/>
        <path class="cls-1" d="M38,71.4l4-3.8v-3.4s-4,3.8-4,3.8v3.4Z"/>
        <path class="cls-1" d="M38,67.1l4-3.8v-3.4l-4,3.8v3.4Z"/>
        <path class="cls-1" d="M38,62.8l4-3.8v-3.4l-4,3.8v3.4Z"/>
        <path class="cls-1" d="M54.6,19.7c0,0,0-.1,0-.2-.2-1.1-.5-2.2-.8-3.2-.3-1.1-.8-2.1-1.2-3-.5-.9-1-1.8-1.6-2.6-.6-.8-1.2-1.5-2-2.3-.7-.7-1.5-1.3-2.3-1.9-1-.6-1.9-1.1-2.8-1.4-1.1-.4-2.3-.6-3.6-.6,0,0-.2,0-.3,0,0,0-.2,0-.2,0-1.2,0-2.4.2-3.6.6-.9.3-1.9.8-2.8,1.4-.8.5-1.6,1.2-2.3,1.9-.7.7-1.4,1.5-1.9,2.3-.6.8-1.1,1.7-1.6,2.6-.5.9-.9,1.9-1.3,3-.3,1-.6,2.1-.8,3.2,0,0,0,.1,0,.2-.2,1.3-.4,2.6-.4,3.9v.6c0,1.3.1,2.8.3,4,.2,1.1.5,2.2.8,3.3.4,1.1.8,2.1,1.2,3,.4.9,1,1.8,1.6,2.7.6.8,1.2,1.6,1.9,2.3.2.2.4.4.6.6,0,0,0,0,0,0h0c.5.5,1.1.9,1.7,1.3.8.5,1.6,1,2.4,1.3,0,0,0,0,.1,0h0c0,0,.1,0,.2,0,1.1.4,2.3.6,3.5.7.2,0,.4,0,.5,0,.2,0,.3,0,.5,0,1.2,0,2.4-.3,3.5-.7,0,0,.1,0,.2,0,0,0,0,0,.1,0,.8-.3,1.7-.8,2.4-1.3.6-.4,1.2-.8,1.7-1.3,0,0,0,0,0,0,0,0,0,0,0,0,.2-.2.4-.4.6-.5.7-.7,1.4-1.5,1.9-2.3.6-.8,1.1-1.7,1.6-2.6.5-.9.9-1.9,1.2-3,.3-1.1.6-2.2.8-3.3,0,0,0,0,0-.1.2-1.3.3-2.6.3-3.9v-.6c0-1.3-.2-2.6-.4-3.9h0ZM40,6.8c.5,0,1,0,1.5.1l-1.5,1.5-1.5-1.5c.5,0,1,0,1.5,0h0ZM43.8,21.7l-1.7,1.7-1.7-1.7,1.7-1.7,1.7,1.7ZM42.6,19.6l1.7-1.7,1.7,1.7-1.7,1.7-1.7-1.7h0ZM41.7,23.9l-1.7,1.7-1.7-1.7,1.7-1.7,1.7,1.7ZM40,21.2l-1.7-1.7,1.7-1.7,1.7,1.7-1.7,1.7ZM39.5,21.7l-1.7,1.7-1.7-1.7,1.7-1.7,1.7,1.7h0ZM35.7,21.3l-1.7-1.7,1.7-1.7,1.7,1.7-1.7,1.7h0ZM37.4,23.9l-1.7,1.7-1.7-1.7,1.7-1.7,1.7,1.7ZM37.4,28.2l-1.7,1.7-1.7-1.7,1.7-1.7s1.7,1.7,1.7,1.7ZM36.1,26l1.7-1.7,1.7,1.7-1.7,1.7-1.7-1.7ZM40,26.5l1.7,1.7-1.7,1.7-1.7-1.7,1.7-1.7h0ZM40.4,26l1.7-1.7,1.7,1.7-1.7,1.7-1.7-1.7ZM44.3,26.5l1.7,1.7-1.7,1.7-1.7-1.7,1.7-1.7ZM42.6,23.9l1.7-1.7,1.7,1.7-1.7,1.7-1.7-1.7ZM44.7,21.7l1.7-1.7,1.7,1.7-1.7,1.7-1.7-1.7ZM44.7,17.4l1.7-1.7,1.7,1.7-1.7,1.7-1.7-1.7h0ZM44.3,16.9l-1.7-1.7,1.7-1.7,1.7,1.7-1.7,1.7ZM43.8,17.4l-1.7,1.7-1.7-1.7,1.7-1.7s1.7,1.7,1.7,1.7ZM40,17l-1.7-1.7,1.7-1.7,1.7,1.7-1.7,1.7ZM39.5,17.4l-1.7,1.7-1.7-1.7,1.7-1.7,1.7,1.7h0ZM35.7,16.9l-1.7-1.7,1.7-1.7,1.7,1.7-1.7,1.7h0ZM35.2,17.4l-1.7,1.7-1.7-1.7,1.7-1.7,1.7,1.7ZM35.2,21.7l-1.7,1.7-1.7-1.7,1.7-1.7,1.7,1.7h0ZM33.1,23.8l-1.7,1.7-1.7-1.7,1.7-1.7,1.7,1.7h0ZM33.5,24.3l1.7,1.7-1.7,1.7-1.7-1.7,1.7-1.7h0ZM35.2,30.3l-1.7,1.7-1.7-1.7,1.7-1.7,1.7,1.7ZM35.7,30.8l1.7,1.7-1.7,1.7-1.7-1.7,1.7-1.7ZM36.1,30.3l1.7-1.7,1.7,1.7-1.7,1.7-1.7-1.7h0ZM40,30.8l1.7,1.7-1.7,1.7-1.7-1.7s1.7-1.7,1.7-1.7ZM40.4,30.3l1.7-1.7,1.7,1.7-1.7,1.7s-1.7-1.7-1.7-1.7ZM44.3,30.8l1.7,1.7-1.7,1.7-1.7-1.7,1.7-1.7h0ZM44.7,30.3l1.7-1.7,1.7,1.7-1.7,1.7-1.7-1.7ZM44.7,26l1.7-1.7,1.7,1.7-1.7,1.7-1.7-1.7ZM46.9,23.9l1.7-1.7,1.7,1.7-1.7,1.7-1.7-1.7ZM49,21.7l1.7-1.7,1.7,1.7-1.7,1.7s-1.7-1.7-1.7-1.7ZM48.6,21.2l-1.7-1.7,1.7-1.7,1.7,1.7-1.7,1.7ZM46.9,15.3l1.7-1.7,1.7,1.7-1.7,1.7-1.7-1.7ZM46.4,14.8l-1.7-1.7,1.7-1.7,1.7,1.7-1.7,1.7ZM44.3,12.7l-1.7-1.7,1.7-1.7,1.7,1.7-1.7,1.7h0ZM43.8,13.1l-1.7,1.7-1.7-1.7,1.7-1.7,1.7,1.7ZM40,12.6l-1.7-1.7,1.7-1.7,1.7,1.7-1.7,1.7ZM39.5,13.1l-1.7,1.7-1.7-1.7,1.7-1.7s1.7,1.7,1.7,1.7ZM35.7,12.6l-1.7-1.7,1.7-1.7,1.7,1.7-1.7,1.7ZM35.2,13.1l-1.7,1.7-1.7-1.7,1.7-1.7,1.7,1.7h0ZM33.1,15.3l-1.7,1.7-1.7-1.7,1.7-1.7,1.7,1.7ZM33.1,19.6l-1.7,1.7-1.7-1.7,1.7-1.7,1.7,1.7ZM30.9,21.7l-1.7,1.7-1.7-1.7,1.7-1.7s1.7,1.7,1.7,1.7ZM30.9,26l-1.7,1.7-1.7-1.7,1.7-1.7,1.7,1.7h0ZM31.4,26.5l1.7,1.7-1.7,1.7-1.7-1.7,1.7-1.7ZM33.1,32.5l-1.7,1.7-1.7-1.7,1.7-1.7,1.7,1.7h0ZM33.5,32.9l1.7,1.7-1.7,1.7-1.7-1.7,1.7-1.7h0ZM35.7,35.1l1.7,1.7-1.7,1.7-1.7-1.7,1.7-1.7ZM36.1,34.6l1.7-1.7,1.7,1.7-1.7,1.7-1.7-1.7h0ZM40,35.1l1.7,1.7-1.7,1.7-1.7-1.7,1.7-1.7ZM40.4,34.6l1.7-1.7,1.7,1.7-1.7,1.7-1.7-1.7ZM44.3,35.1l1.7,1.7-1.7,1.7-1.7-1.7s1.7-1.7,1.7-1.7ZM44.7,34.6l1.7-1.7,1.7,1.7-1.7,1.7-1.7-1.7ZM46.9,32.5l1.7-1.7,1.7,1.7-1.7,1.7-1.7-1.7h0ZM46.9,28.1l1.7-1.7,1.7,1.7-1.7,1.7-1.7-1.7ZM49,26l1.7-1.7,1.7,1.7-1.7,1.7-1.7-1.7ZM51.2,23.8l1.7-1.7.3.3c0,.5,0,1,0,1.5s0,.8,0,1.2l-.4.4-1.7-1.7ZM52.9,21.3l-1.7-1.7,1.3-1.3c.2.9.4,1.9.6,2.8l-.2.2h0ZM52.3,17.5l-1.6,1.6-1.7-1.7,1.7-1.7,1.5,1.5c0,.1,0,.2.1.4h0ZM51.2,15.3l.2-.2c0,.2.2.4.3.6l-.4-.4ZM50.7,14.8l-1.7-1.7.7-.7c.5.7.9,1.4,1.3,2.1l-.3.3ZM48.6,12.7l-1.7-1.7.9-.9c.6.5,1.1,1.1,1.6,1.8l-.8.8ZM46.4,10.5l-1.7-1.7.6-.6c.7.4,1.3.9,2,1.4,0,0-.9.9-.9.9ZM44.7,7.9l-.4.4-1-1c.5.2,1,.4,1.5.6ZM43.8,8.8l-1.7,1.7-1.7-1.7,1.7-1.7s1.7,1.7,1.7,1.7ZM39.5,8.8l-1.7,1.7-1.7-1.7,1.7-1.7,1.7,1.7ZM35.7,8.3l-.4-.4c.5-.2,1-.4,1.4-.6l-1,1h0ZM35.2,8.8l-1.7,1.7-.9-.9c.6-.5,1.3-1,2-1.4,0,0,.6.6.6.6ZM33.1,11l-1.7,1.7-.8-.8c.5-.7,1-1.2,1.6-1.8l.9.9h0ZM30.9,13.1l-1.7,1.7-.3-.3c.4-.7.8-1.4,1.3-2.1l.7.7h0ZM28.6,15.1l.2.2-.4.4c0-.2.2-.4.3-.6ZM29.2,15.7l1.7,1.7-1.7,1.7-1.6-1.6c0-.1,0-.3.1-.4l1.4-1.4h0ZM28.8,19.6l-1.7,1.7-.2-.2c.1-1,.3-1.9.6-2.8,0,0,1.3,1.3,1.3,1.3ZM26.7,22.5l.3-.3,1.7,1.7-1.7,1.7-.4-.4c0-.4,0-.8,0-1.2,0-.5,0-1,0-1.5h0ZM27.1,26.5l1.7,1.7-1.4,1.4c-.2-.9-.4-1.9-.5-2.8,0,0,.2-.2.2-.2ZM27.6,30.2l1.6-1.6,1.7,1.7-1.7,1.7-1.6-1.6c0,0,0-.1,0-.2h0ZM28.8,32.5l-.3.3c-.1-.3-.3-.6-.4-.9l.6.6h0ZM29.2,32.9l1.7,1.7-.8.8c-.5-.7-.9-1.4-1.3-2.1,0,0,.4-.4.4-.4ZM31.4,35.1l1.7,1.7-1,1c-.6-.5-1.1-1.1-1.6-1.8l.9-.9h0ZM33.5,37.2l1.7,1.7-.8.8c-.7-.4-1.3-.9-2-1.4l1-1ZM35,40l.6-.6,1.4,1.5c-.7-.2-1.4-.5-2.1-.8h0ZM36.1,38.9l1.7-1.7,1.7,1.7-1.7,1.7-1.7-1.7h0ZM38.3,41l1.7-1.7,1.7,1.7h0c-.5.1-1.1.2-1.7.2-.6,0-1.1,0-1.7-.1h0s0,0,0,0ZM40.4,38.9l1.7-1.7,1.7,1.7-1.7,1.7-1.7-1.7ZM44.3,39.4l.6.6c-.7.3-1.4.6-2.1.8l1.4-1.4h0ZM44.7,38.9l1.7-1.7,1,1c-.6.5-1.3,1-2,1.4l-.8-.8ZM46.9,36.7l1.7-1.7.9.9c-.5.7-1,1.3-1.6,1.8l-1-1h0ZM49,34.6l1.7-1.7.4.4c-.4.8-.8,1.5-1.3,2.1l-.9-.9ZM51.2,32.5l.6-.6c-.1.3-.2.6-.4.9l-.2-.2ZM50.7,32l-1.7-1.7,1.7-1.7,1.6,1.6c0,0,0,.1,0,.2l-1.6,1.6ZM51.2,28.2l1.7-1.7.2.2c-.1,1-.3,1.9-.5,2.8l-1.4-1.4Z"/>
        <path class="cls-1" d="M41.9,48.1c0,.1-.2.2-.3.2h-3.2c-.1,0-.3,0-.3-.2-.7-1.6-1.6-3.3-2.7-4.9-.7-.3-1.4-.6-2.1-1,1.7,2.2,4,5.7,4.7,9.3h0s0,0,0,0h0s0,0,0,0c0,0,0,0,0,0v7l4-3.8v-3.2h0s0,0,0,0h0c.7-3.6,3-7.1,4.7-9.4-.7.4-1.4.8-2.1,1-1.1,1.7-2.1,3.3-2.7,4.9h0Z"/>
      </g>
    </g>
  </g>
</svg>